<svg id="회원관리" xmlns="http://www.w3.org/2000/svg" width="36" height="36" viewBox="0 0 36 36">
  <rect id="사각형_1538" data-name="사각형 1538" width="36" height="36" fill="#fff" opacity="0"/>
  <g id="합치기_117" data-name="합치기 117" transform="translate(9.458 10.449)" fill="none" stroke-linejoin="round">
    <path d="M1.881,16.449A2.232,2.232,0,0,1,0,13.986L.317,10.7A2.462,2.462,0,0,1,2.505,8.24H5.638A2.4,2.4,0,0,1,7.755,10.7l.389,3.282a2.23,2.23,0,0,1-1.879,2.463Zm9.583-1.684a1.621,1.621,0,0,1-1.362-1.79l.229-2.388A1.786,1.786,0,0,1,11.916,8.8h2.268a1.745,1.745,0,0,1,1.534,1.792L16,12.976a1.621,1.621,0,0,1-1.362,1.79ZM11.449,3.157a1.606,1.606,0,0,1,3.2,0,1.606,1.606,0,0,1-3.2,0ZM1.864,2.026A2.123,2.123,0,0,1,4.072,0a2.124,2.124,0,0,1,2.21,2.026,2.124,2.124,0,0,1-2.21,2.028A2.124,2.124,0,0,1,1.864,2.026Z" stroke="none"/>
    <path d="M 6.265140056610107 16.44921875 C 7.302730083465576 16.44921875 8.144040107727051 15.34862899780273 8.144040107727051 13.98632907867432 L 7.755370140075684 10.70409965515137 C 7.755370140075684 9.341799736022949 6.676270008087158 8.240239143371582 5.638179779052734 8.240239143371582 L 2.505369901657104 8.240239143371582 C 1.470219969749451 8.240239143371582 0.3168900012969971 9.341799736022949 0.3168900012969971 10.70409965515137 L 0 13.98632907867432 C 0 15.34862899780273 0.84375 16.44921875 1.880859971046448 16.44921875 L 6.265140056610107 16.44921875 M 14.63817977905273 14.76562976837158 C 15.39013957977295 14.76562976837158 16 13.96386909484863 16 12.97558975219727 L 15.71728992462158 10.58788967132568 C 15.71728992462158 9.5966796875 14.93554973602295 8.795899391174316 14.18311023712158 8.795899391174316 L 11.91553020477295 8.795899391174316 C 11.16308975219727 8.795899391174316 10.33008003234863 9.5966796875 10.33008003234863 10.58788967132568 L 10.10155963897705 12.97558975219727 C 10.10155963897705 13.96386909484863 10.71142959594727 14.76562976837158 11.46337985992432 14.76562976837158 L 14.63817977905273 14.76562976837158 M 13.05224990844727 4.629879474639893 C 13.93505954742432 4.629879474639893 14.64990043640137 3.971679449081421 14.64990043640137 3.157229423522949 C 14.64990043640137 2.342769384384155 13.93505954742432 1.684569358825684 13.05224990844727 1.684569358825684 C 12.16650009155273 1.684569358825684 11.44873046875 2.342769384384155 11.44873046875 3.157229423522949 C 11.44873046875 3.971679449081421 12.16650009155273 4.629879474639893 13.05224990844727 4.629879474639893 M 4.072269916534424 4.054689407348633 C 5.293950080871582 4.054689407348633 6.282710075378418 3.147459268569946 6.282710075378418 2.026369333267212 C 6.282710075378418 0.9072293639183044 5.293950080871582 -6.24999984211172e-07 4.072269916534424 -6.24999984211172e-07 C 2.852540016174316 -6.24999984211172e-07 1.863770008087158 0.9072293639183044 1.863770008087158 2.026369333267212 C 1.863770008087158 3.147459268569946 2.852540016174316 4.054689407348633 4.072269916534424 4.054689407348633 M 6.265140056610107 17.84922027587891 L 1.880859971046448 17.84922027587891 C 0.9464600086212158 17.84922027587891 0.05657000094652176 17.38624000549316 -0.5606499910354614 16.57898902893066 C -1.101909995079041 15.87107944488525 -1.399999976158142 14.95031929016113 -1.399999976158142 13.98632907867432 C -1.399999976158142 13.94140911102295 -1.397840023040771 13.89650917053223 -1.393519997596741 13.8517894744873 L -1.082380056381226 10.62911605834961 C -1.063539028167725 9.660984992980957 -0.6803420186042786 8.731354713439941 0.001490000053308904 8.003909111022949 C 0.6946300268173218 7.264379501342773 1.60725998878479 6.840239524841309 2.505369901657104 6.840239524841309 L 5.638179779052734 6.840239524841309 C 7.21883487701416 6.840239524841309 8.635753631591797 8.125338554382324 9.040228843688965 9.763070106506348 C 9.399340629577637 8.432827949523926 10.58956623077393 7.395899295806885 11.91553020477295 7.395899295806885 L 14.18311023712158 7.395899295806885 C 14.95055961608887 7.395899295806885 15.71356964111328 7.757349491119385 16.2764892578125 8.387558937072754 C 16.79777526855469 8.97115421295166 17.0938892364502 9.715934753417969 17.11595916748047 10.49404144287109 L 17.39028930664062 12.81097984313965 C 17.39676094055176 12.86560916900635 17.39999961853027 12.920578956604 17.39999961853027 12.97558975219727 C 17.39999961853027 13.75794982910156 17.15683937072754 14.50844955444336 16.71530914306641 15.08884906768799 C 16.19473075866699 15.77315902709961 15.43764019012451 16.16562843322754 14.63817977905273 16.16562843322754 L 11.46337985992432 16.16562843322754 C 10.67319107055664 16.16562843322754 9.92438793182373 15.78218746185303 9.404449462890625 15.11252593994141 C 9.266892433166504 15.65325546264648 9.030320167541504 16.15392684936523 8.706509590148926 16.5781192779541 C 8.089870452880859 17.38591957092285 7.200019836425781 17.84922027587891 6.265140056610107 17.84922027587891 Z M 13.05224990844727 6.029879570007324 C 11.39610004425049 6.029879570007324 10.04872989654541 4.741209506988525 10.04872989654541 3.157229423522949 C 10.04872989654541 1.573239326477051 11.39610004425049 0.2845693826675415 13.05224990844727 0.2845693826675415 C 14.70516014099121 0.2845693826675415 16.04990005493164 1.573239326477051 16.04990005493164 3.157229423522949 C 16.04990005493164 4.741209506988525 14.70516014099121 6.029879570007324 13.05224990844727 6.029879570007324 Z M 4.072269916534424 5.454689502716064 C 2.082540035247803 5.454689502716064 0.4637700021266937 3.916749477386475 0.4637700021266937 2.026369333267212 C 0.4637700021266937 0.1370593756437302 2.082540035247803 -1.40000057220459 4.072269916534424 -1.40000057220459 C 6.063069820404053 -1.40000057220459 7.68271017074585 0.1370593756437302 7.68271017074585 2.026369333267212 C 7.68271017074585 3.916749477386475 6.063069820404053 5.454689502716064 4.072269916534424 5.454689502716064 Z" stroke="none" fill="#111"/>
  </g>
</svg>
