<svg xmlns="http://www.w3.org/2000/svg" width="30" height="32" viewBox="0 0 30 32">
    <defs>
        <linearGradient id="9gdzi3y7ua" x1=".169" y1=".258" x2=".842" y2=".812" gradientUnits="objectBoundingBox">
            <stop offset="0" stop-color="#6e0094"/>
            <stop offset=".563" stop-color="#9200aa"/>
            <stop offset="1" stop-color="#4f2060"/>
        </linearGradient>
        <linearGradient id="c90ehyuigb" x1=".5" x2=".5" y2="1" gradientUnits="objectBoundingBox">
            <stop offset="0" stop-color="#d2bfa1"/>
            <stop offset=".473" stop-color="#ffe9b9"/>
            <stop offset="1" stop-color="#ccb38a"/>
        </linearGradient>
        <linearGradient id="humemf7u3c" x1=".5" x2=".5" y2="1" gradientUnits="objectBoundingBox">
            <stop offset="0" stop-color="#cbad7e"/>
            <stop offset=".473" stop-color="#ffe09f"/>
            <stop offset="1" stop-color="#c9ad7f"/>
        </linearGradient>
    </defs>
    <path data-name="사각형 2852" style="fill:none" d="M0 0h30v32H0z"/>
    <g data-name="그룹 2951">
        <g data-name="그룹 2504">
            <rect data-name="사각형 1898" width="30" height="30" rx="15" style="fill:url(#9gdzi3y7ua)"/>
            <g data-name="그룹 2436">
                <path data-name="합치기 80" d="M6.773 25.754a16.138 16.138 0 0 0 8.2 1.867c5.615 0 10.385-4.188 12.022-9.513a13.767 13.767 0 0 1-20.05 6.948 17.091 17.091 0 0 0 7.165 1.567 14.24 14.24 0 0 0 13.247-9.96 13.446 13.446 0 0 0 .245-2.549 13.165 13.165 0 0 0-10.066-12.68 26.7 26.7 0 0 0-3.693-.234q-.348 0-.7.023C6.819 2.079 1.256 7.85 1.256 14.368a15.308 15.308 0 0 0 1.475 6.68 13.727 13.727 0 0 0 4.214 4.008 14.4 14.4 0 0 1-2.721-1.648 11.639 11.639 0 0 0 2.549 2.347A10.094 10.094 0 0 1 3.6 22.9 10.051 10.051 0 0 1 0 15.235q0-.328.02-.656a12.676 12.676 0 0 1 .507-2.825l-.009.074a14.408 14.408 0 0 0-.1 1.7 13.324 13.324 0 0 0 1.755 6.622 16.994 16.994 0 0 1-.916-5.784 13.327 13.327 0 0 1 1.661-7.192 14.9 14.9 0 0 0-2.4 4.655l.009-.074A13.183 13.183 0 0 1 13.668 0a15.21 15.21 0 0 1 8.538 2.281A13.487 13.487 0 0 0 18.344.866a19.33 19.33 0 0 1 3.862 2.026q-.25-.141-.515-.271a13.721 13.721 0 0 1 5.327 6.019 12.136 12.136 0 0 0-4.812-6.359 10.651 10.651 0 0 1 5.17 7.219 13.8 13.8 0 0 1 .88 4.867c0 7.552-5.621 13.7-13.064 13.7a14.709 14.709 0 0 1-8.419-2.313z" transform="translate(.863 .979)" style="fill:url(#c90ehyuigb)"/>
            </g>
        </g>
        <path data-name="패스 1930" d="M-465.437 18802.844H-470V18791h3.724a3.452 3.452 0 0 1 2.48.832 3.421 3.421 0 0 1 .766 1.074 3.259 3.259 0 0 1 .292 1.273v.023a3.373 3.373 0 0 1-.664 1.887 2.4 2.4 0 0 1-1.123.971 3.928 3.928 0 0 1-1.1.258c-.35.047-.67.063-.733.063h-1.857v-1.2h1.843a2.369 2.369 0 0 0 1.686-.51l.01-.008a2.076 2.076 0 0 0 .692-1.475 2.057 2.057 0 0 0-.69-1.459l-.01-.012a2.411 2.411 0 0 0-1.688-.506h-2.487v9.416h3.315a2.815 2.815 0 0 0 1.884-.5 2.009 2.009 0 0 0 .564-1.609v-.033a2.008 2.008 0 0 0-.749-1.74l.89-.791a3.292 3.292 0 0 1 1.088 2.58 4.223 4.223 0 0 1-.219 1.418 2.644 2.644 0 0 1-.69 1.064 3.036 3.036 0 0 1-1.139.625 5.409 5.409 0 0 1-1.522.203z" transform="translate(481.632 -18781.58)" style="fill:url(#humemf7u3c)"/>
    </g>
</svg>
