<svg xmlns="http://www.w3.org/2000/svg" width="21.736" height="15.563" viewBox="0 0 21.736 15.563">
    <g data-name="PrevBtn\">
        <g data-name="패스 1501" style="fill:#333">
            <path d="M-6136.142-2096.354h-11.35V-2097.538h11.35c3.189 0 5.25-1.713 5.25-4.363 0-2.551-1.914-4.015-5.25-4.015h-13.458V-2107.1h13.458c1.838 0 3.406.435 4.534 1.26 1.242.909 1.899 2.27 1.899 3.94 0 1.687-.656 3.108-1.895 4.109-1.149.927-2.76 1.437-4.538 1.437z" style="stroke:none" transform="translate(6151.345 2111.817)"/>
            <path d="M-6136.142-2096.454c3.49 0 6.332-1.958 6.332-5.447 0-3.49-2.843-5.1-6.332-5.1h-13.358v.985h13.358c2.947 0 5.35 1.169 5.35 4.115s-2.403 4.463-5.35 4.463h-11.25v.984h11.25m0 .2h-11.45v-1.384h11.45c3.128 0 5.15-1.674 5.15-4.263 0-1.318-.5-2.327-1.483-2.997-.88-.6-2.149-.918-3.667-.918h-13.559v-1.384h13.559c1.86 0 3.448.442 4.593 1.28 1.269.927 1.94 2.317 1.94 4.02 0 1.719-.669 3.167-1.933 4.187-1.166.94-2.8 1.46-4.6 1.46z" style="fill:#333;stroke:none" transform="translate(6151.345 2111.817)"/>
        </g>
        <path data-name="패스 1502" d="M0 6V0h6" transform="rotate(-45 6.812 1.421)" style="fill:none;stroke:#333;stroke-linecap:round;stroke-width:1.4px"/>
    </g>
</svg>
