<svg xmlns="http://www.w3.org/2000/svg" width="14" height="18.527" viewBox="0 0 14 18.527">
    <g data-name="타원 504" transform="translate(4 12.527)" style="stroke:#555;stroke-width:1.4px;fill:#fff">
        <circle cx="3" cy="3" r="3" style="stroke:none"/>
        <circle cx="3" cy="3" r="2.3" style="fill:none"/>
    </g>
    <g data-name="합치기 72" style="fill:#fff">
        <path d="M13.03 13.827H.97l1.248-3.745.036-.108V5.972a4.75 4.75 0 0 1 2.83-4.343l.394-.173.023-.43A1.399 1.399 0 0 1 6.899-.3c.728 0 1.327.545 1.395 1.268l.04.429.4.157a4.74 4.74 0 0 1 3.01 4.418v4.002l.036.108 1.25 3.745z" style="stroke:none" transform="translate(0 1)"/>
        <path d="m12.058 13.127-1.014-3.04V5.973A4.023 4.023 0 0 0 8.48 2.206l-.802-.315-.08-.858a.7.7 0 0 0-1.396.03l-.045.859-.788.348a4.05 4.05 0 0 0-2.413 3.702v4.116l-1.013 3.039h10.116m1.942 1.4H0L1.555 9.86V5.972A5.445 5.445 0 0 1 4.803.989 2.1 2.1 0 0 1 8.99.903a5.446 5.446 0 0 1 3.453 5.069V9.86L14 14.527z" style="fill:#555;stroke:none" transform="translate(0 1)"/>
    </g>
</svg>
