<svg id="예약관리" xmlns="http://www.w3.org/2000/svg" width="36" height="36" viewBox="0 0 36 36">
  <rect id="사각형_1538" data-name="사각형 1538" width="36" height="36" fill="#fff" opacity="0"/>
  <ellipse id="타원_564" data-name="타원 564" cx="9" cy="8.7" rx="9" ry="8.7" transform="translate(9 10)" fill="none" stroke="#111" stroke-width="1.6"/>
  <path id="패스_1634" data-name="패스 1634" d="M-4833.8-6430.742a.349.349,0,0,1-.279-.163l-2.82-2.5a.551.551,0,0,1,0-.675c.154-.218.657,0,.657,0l2.442,1.474,3.889-3.361a.32.32,0,0,1,.558,0c.155.218-.147.573-.3.791l-3.865,4.273A.347.347,0,0,1-4833.8-6430.742Z" transform="translate(4851.266 6451.552)" fill="#111" stroke="#111" stroke-width="1"/>
</svg>
