<svg id="윈윈랩설정" xmlns="http://www.w3.org/2000/svg" width="36" height="36" viewBox="0 0 36 36">
  <rect id="사각형_1530" data-name="사각형 1530" width="36" height="36" fill="none"/>
  <path id="윈윈랩설정-2" data-name="윈윈랩설정" d="M5304.886,6828.714l-2.641-2.788.719-.723,2.653,2.8a1.008,1.008,0,0,0,.733.311,1.019,1.019,0,0,0,.709-.284l1.9-1.809a1.019,1.019,0,0,0,.025-1.44l-1.924-1.992.979-.454,1.677,1.739a2.04,2.04,0,0,1-.051,2.88l-1.9,1.807a2.036,2.036,0,0,1-2.879-.049Zm-10.546-.473a3.225,3.225,0,0,1-.861-1.19,1.422,1.422,0,0,1,.361-1.532l7.646-7.583a5.045,5.045,0,0,1-.344-1.843,5.092,5.092,0,0,1,6.95-4.741.508.508,0,0,1,.18.829l-2.121,2.192a.411.411,0,0,0,.013.578l1.316,1.272a.411.411,0,0,0,.285.113.393.393,0,0,0,.291-.122l2.077-2.15a.508.508,0,0,1,.84.166,5.016,5.016,0,0,1,.354,1.862,5.1,5.1,0,0,1-5.093,5.093,5.01,5.01,0,0,1-1.569-.248l-7.677,7.619a1.5,1.5,0,0,1-1.088.513A2.383,2.383,0,0,1,5294.34,6828.241Zm7.82-12.148a4.017,4.017,0,0,0,.389,1.735.511.511,0,0,1-.095.571l-7.88,7.827a.419.419,0,0,0-.135.487,2.341,2.341,0,0,0,.609.8c.14.134.564.544.851.544.038,0,.16,0,.355-.2l7.905-7.854a.509.509,0,0,1,.557-.119,4.073,4.073,0,0,0,5.591-3.783,4.207,4.207,0,0,0-.056-.684l-1.461,1.511a1.406,1.406,0,0,1-1.025.437,1.422,1.422,0,0,1-.991-.4l-1.319-1.275a1.428,1.428,0,0,1-.035-2.017l1.531-1.583a4.07,4.07,0,0,0-4.791,4.009Zm-9.26-.028a2.034,2.034,0,0,1,.05-2.88l1.863-1.615a2.036,2.036,0,0,1,2.88.052l2.466,2.552-.426,1.027-2.773-2.872a1.018,1.018,0,0,0-1.44-.024l-1.865,1.611a1.006,1.006,0,0,0-.31.713,1.019,1.019,0,0,0,.286.727l3.884,4.1-.778.66Z" transform="translate(-5283.326 -6801.499)" fill="#111" stroke="#111" stroke-width="0.4"/>
</svg>
