<svg id="홈페이지관리" xmlns="http://www.w3.org/2000/svg" width="36" height="36" viewBox="0 0 36 36">
  <rect id="사각형_531" data-name="사각형 531" width="36" height="36" fill="#111" opacity="0"/>
  <path id="빼기_78" data-name="빼기 78" d="M12.495,17.888H5.287a.626.626,0,0,1-.374-.383,1.13,1.13,0,0,1,0-.737.445.445,0,0,1,.374-.37h7.2a.408.408,0,0,1,.305.281,1.52,1.52,0,0,1,0,.826.725.725,0,0,1-.3.383ZM14,14.739H2.529A3.471,3.471,0,0,1-1,11.337V3.4A3.471,3.471,0,0,1,2.529,0H15.47A3.471,3.471,0,0,1,19,3.4V10H17.353V3.4A1.851,1.851,0,0,0,15.47,1.587H2.529A1.851,1.851,0,0,0,.647,3.4v7.937a1.851,1.851,0,0,0,1.882,1.814H14v1.587Z" transform="translate(9 9.001)" fill="#111"/>
  <rect id="사각형_2842" data-name="사각형 2842" width="5" height="7" rx="2.5" transform="translate(25 21)" fill="none" stroke="#111" stroke-width="1.4"/>
  <ellipse id="타원_568" data-name="타원 568" cx="0.5" cy="1" rx="0.5" ry="1" transform="translate(27 22)" fill="#111"/>
  <circle id="타원_569" data-name="타원 569" cx="1" cy="1" r="1" transform="translate(17 11)" fill="#111"/>
</svg>
