<svg id="시술관리" xmlns="http://www.w3.org/2000/svg" width="36" height="36" viewBox="0 0 36 36">
  <rect id="사각형_1538" data-name="사각형 1538" width="36" height="36" fill="#fff" opacity="0"/>
  <path id="합치기_111" data-name="합치기 111" d="M4527.735,6471.215a2.814,2.814,0,0,1-2.735-2.881v-.087a2.051,2.051,0,0,1-1.25-1.4v-5.662a1.9,1.9,0,0,1,1.25-1.31v-.179a2.813,2.813,0,0,1,2.735-2.881h8.453a1,1,0,0,0-.1.434v.911h-8.355a1.5,1.5,0,0,0-1.458,1.536v.141c.788.253,1.359.958,1.359,1.348v5.662a2.081,2.081,0,0,1-1.359,1.444v.045a1.5,1.5,0,0,0,1.458,1.537h11.852a1.5,1.5,0,0,0,1.458-1.537v-6.686h1.277v6.686a2.815,2.815,0,0,1-2.735,2.881Zm5.879-6.9a.626.626,0,0,1-.037-.872l1.771-1.484a2.919,2.919,0,0,1,.134-.921,4.322,4.322,0,0,1,.978-1.715l5.733-5.661a2.269,2.269,0,0,1,1.577-.658,1.92,1.92,0,0,1,1.366.544l.161.159a1.88,1.88,0,0,1,.555,1.354,2.215,2.215,0,0,1-.671,1.559l-5.733,5.661a4.408,4.408,0,0,1-1.734.963,3.114,3.114,0,0,1-.859.136,1.51,1.51,0,0,1-.808-.206l-1.581,1.326a.445.445,0,0,1-.292.1A.757.757,0,0,1,4533.614,6464.313Zm3.446-2.893a.777.777,0,0,1,.192.562,3.364,3.364,0,0,0,1.221-.672l5.734-5.66a.742.742,0,0,0,.226-.518.564.564,0,0,0-.164-.406l-.161-.159a.587.587,0,0,0-.413-.163.758.758,0,0,0-.528.224l-5.734,5.66a3.241,3.241,0,0,0-.588.946A.867.867,0,0,1,4537.06,6461.42Z" transform="translate(-4515.749 -6445.217)" fill="#111" stroke="#111" stroke-width="0.2"/>
</svg>
