<svg id="대시보드" xmlns="http://www.w3.org/2000/svg" width="36" height="36" viewBox="0 0 36 36">
  <rect id="사각형_1530" data-name="사각형 1530" width="36" height="36" fill="none"/>
  <g id="Dashborad" transform="translate(0.461 -0.889)">
    <g id="그룹_2893" data-name="그룹 2893" transform="translate(7.539 9.944)">
      <path id="합치기_113" data-name="합치기 113" d="M6.011,18.532a.69.69,0,0,1-.438-.365.883.883,0,0,1,0-.7.5.5,0,0,1,.438-.353h8.464a.467.467,0,0,1,.359.268,1.2,1.2,0,0,1,0,.788.752.752,0,0,1-.353.365ZM3.53,15.4A3.541,3.541,0,0,1,0,11.845V3.553A3.542,3.542,0,0,1,3.53,0H16.471A3.542,3.542,0,0,1,20,3.553v8.292A3.541,3.541,0,0,1,16.471,15.4ZM1.647,3.553v8.292a1.891,1.891,0,0,0,1.883,1.9H16.471a1.891,1.891,0,0,0,1.882-1.9V3.553a1.89,1.89,0,0,0-1.882-1.895H3.53A1.89,1.89,0,0,0,1.647,3.553Z" transform="translate(0 -0.056)" fill="#111"/>
      <path id="패스_1650" data-name="패스 1650" d="M8.919,8.281V3.612h3.323V8.281ZM4.534,8.3V6.165H7.6V8.3ZM0,8.3V6.165H5.836V8.3ZM0,4.987V0H7.6V4.987Zm8.919.159V0h3.323V5.146Z" transform="translate(4 3.548)" fill="#111"/>
    </g>
  </g>
</svg>
