<svg xmlns="http://www.w3.org/2000/svg" width="30" height="26" viewBox="0 0 30 26">
    <g data-name="2">
        <path data-name="빼기 62" d="M28.8 20.349H1.2a1.2 1.2 0 0 1-1.2-1.2V1.2A1.2 1.2 0 0 1 1.2 0h27.6A1.2 1.2 0 0 1 30 1.2v17.949a1.2 1.2 0 0 1-1.2 1.2zM3.517 2.215a1 1 0 0 0-1 1v12.231a1 1 0 0 0 1 1h22.966a1 1 0 0 0 1-1V3.215a1 1 0 0 0-1-1z" style="fill:#fff"/>
        <path data-name="패스 1508" d="M-7668.558 5834.5c-.278 0-.4-.271-.184-.4l3.655-3.378.6-2.222h5.688l.552 2.112 3.832 3.488c.219.132.1.4-.184.4z" transform="translate(7676.17 -5808.502)" style="fill:#fff"/>
    </g>
</svg>
