<svg xmlns="http://www.w3.org/2000/svg" width="30" height="30" viewBox="0 0 30 30">
    <path data-name="1" d="M-8464.326 5488.984c-2.462-.289-9.628-4.645-12.687-7.871s-7.169-10.02-6.985-12.348 4.474-6.789 6.547-6.324 4.188 4.438 3.954 5.113-2.6 2.367-2.76 3.5 1.165 4.875 3.291 6.727 4.89 3.574 6.613 3.332 2.261-2.727 3.224-2.691 5.614 2.754 5.518 4.141c-.094 1.348-4.036 6.438-6.516 6.438a1.645 1.645 0 0 1-.199-.017zm.484-25.855a20.127 20.127 0 0 0-7.97-2.605l.09-1.523a21.093 21.093 0 0 1 8.584 2.781 17.643 17.643 0 0 1 6.072 5.781 21.1 21.1 0 0 1 3.066 10.667l-1.508.059c-.272-6.961-3.074-12.062-8.334-15.16zm-2.17 4.613a12.132 12.132 0 0 0-4.839-1.59l.09-1.527a13.541 13.541 0 0 1 5.455 1.766 11.221 11.221 0 0 1 3.866 3.688 13.371 13.371 0 0 1 1.944 6.762l-1.506.059c-.163-4.2-1.848-7.287-5.01-9.158z" transform="translate(8484.005 -5459)" style="fill:#fff"/>
</svg>
