<svg xmlns="http://www.w3.org/2000/svg" width="19.601" height="21.6" viewBox="0 0 19.601 21.6">
    <path data-name="빼기 60" d="M3868.122 6127h-14.14a1.016 1.016 0 0 1-.983-1.044v-16.14a1.015 1.015 0 0 1 .983-1.042h14.14a1.016 1.016 0 0 1 .984 1.042v16.14a1.016 1.016 0 0 1-.984 1.044zM3854 6110h14v15.957h.123v-16.14h-14.14v16.14h.017V6110zm6 8.7v3.2h2v-3.2h3.2v-2h-3.2v-3.2h-2v3.2h-3.2v2zm11.016 5.126h-.506v-1.042h.506v-15.74h-13.124a1.016 1.016 0 0 1 .983-1.041h12.141a1.015 1.015 0 0 1 .981 1.044v15.74a1.014 1.014 0 0 1-.978 1.04z" transform="translate(-3852.699 -6105.701)" style="fill:#fff;stroke:#fff;stroke-width:.6px"/>
</svg>
