<svg xmlns="http://www.w3.org/2000/svg" width="19.4" height="19.4" viewBox="0 0 19.4 19.4">
  <g id="off" transform="translate(0.7 0.7)">
    <rect id="사각형_1513" data-name="사각형 1513" width="18" height="18" rx="1" fill="none" stroke="#ccc" stroke-width="1.4"/>
    <path id="합치기_72" data-name="합치기 72" d="M-8519.6-5180.567l-4.91-4.91a1.434,1.434,0,0,1-.485-1.016,1.157,1.157,0,0,1,.381-.834,1.219,1.219,0,0,1,.854-.368,1.509,1.509,0,0,1,1.008.447l3.855,2.578,9.116-8.034a1.053,1.053,0,0,1,.731-.3,1.045,1.045,0,0,1,.745.308,1.055,1.055,0,0,1,.011,1.48l-9.816,10.644a1.041,1.041,0,0,1-.744.308A1.048,1.048,0,0,1-8519.6-5180.567Z" transform="translate(8525.881 5194.507)" fill="#ccc"/>
  </g>
</svg>
