<svg xmlns="http://www.w3.org/2000/svg" width="40" height="40" viewBox="0 0 40 40">
    <g data-name="4">
        <path data-name="패스 1381" d="M-7.771-14.609v.528a2.244 2.244 0 0 1 1.04.171.677.677 0 0 1 .311.652v6.941A3.018 3.018 0 0 0-5.1-3.755a6.147 6.147 0 0 0 3.711.994 4.622 4.622 0 0 0 2.9-.932 2.952 2.952 0 0 0 1.277-2.423v-7.143a.667.667 0 0 1 .373-.652 2.84 2.84 0 0 1 1.149-.171v-.528H.366v.528a3.554 3.554 0 0 1 1.289.171.659.659 0 0 1 .45.652v6.988a2.655 2.655 0 0 1-1.134 2.19 3.212 3.212 0 0 1-2.019.761 3.857 3.857 0 0 1-2.593-.823 2.581 2.581 0 0 1-.932-2.065v-7.05a.645.645 0 0 1 .388-.652 3.333 3.333 0 0 1 1.285-.171v-.528zM-8.33-1.4H4.915v.8H-8.33z" transform="translate(21 27)" style="fill:#fff"/>
    </g>
</svg>
