<svg xmlns="http://www.w3.org/2000/svg" width="40" height="40" viewBox="0 0 40 40">
    <g data-name="1">
        <path data-name="패스 1380" d="m.339-14.941-1.961.458-3.939 11.031a4.306 4.306 0 0 1-.9 1.576 1.873 1.873 0 0 1-1.246.348v.586h4.233v-.586A2.311 2.311 0 0 1-4.883-1.8q-.4-.348-.018-1.429l.935-2.584h5.332l1.154 3.1q.238.751-.22 1.008a4.158 4.158 0 0 1-1.576.183v.586H6.68v-.586a2.592 2.592 0 0 1-1.154-.22 1.17 1.17 0 0 1-.6-.678zm-1.649 1.8 2.419 6.629h-4.8z" transform="translate(21 27)" style="fill:#fff"/>
    </g>
</svg>
