<svg xmlns="http://www.w3.org/2000/svg" width="40" height="40" viewBox="0 0 40 40">
    <g data-name="2">
        <path data-name="패스 1379" d="M-7.285-.609H.68a6.247 6.247 0 0 0 3.992-1.162 3.268 3.268 0 0 0 1.349-2.662A3.018 3.018 0 0 0 4.9-6.832a6.069 6.069 0 0 0-3.358-1.237 4.584 4.584 0 0 0 2.83-1.162 2.8 2.8 0 0 0 .843-2.062 2.785 2.785 0 0 0-1.105-2.248 5.511 5.511 0 0 0-3.636-1.068h-7.759v.656a3.281 3.281 0 0 1 1.443.187q.225.15.281.806v10.683a.871.871 0 0 1-.45.862 2.765 2.765 0 0 1-1.274.206zm3.954-7.684v-4.667a.848.848 0 0 1 .394-.806 2.437 2.437 0 0 1 1.162-.206h1.687a2.427 2.427 0 0 1 1.949.862 2.942 2.942 0 0 1 .656 1.949 2.93 2.93 0 0 1-.675 1.912 2.451 2.451 0 0 1-2.005.956zm0 .618h3.243a3.364 3.364 0 0 1 2.417.975 2.935 2.935 0 0 1 .956 2.155A3.556 3.556 0 0 1 2.5-2.24 2.59 2.59 0 0 1 .418-1.209h-2.024a2.925 2.925 0 0 1-1.349-.206.922.922 0 0 1-.375-.862z" transform="translate(21 27)" style="fill:#fff"/>
    </g>
</svg>
