<svg xmlns="http://www.w3.org/2000/svg" width="26.25" height="23.364" viewBox="0 0 26.25 23.364">
  <path id="주의" d="M5767.114-14733h-16.229a4.943,4.943,0,0,1-4.358-2.548,4.937,4.937,0,0,1,.084-5.044l8.114-13.366a4.963,4.963,0,0,1,4.274-2.406,4.963,4.963,0,0,1,4.274,2.406l8.115,13.366a4.936,4.936,0,0,1,.087,5.042A4.943,4.943,0,0,1,5767.114-14733Zm-7.963-7.307a1.52,1.52,0,0,0-1.174.5,1.749,1.749,0,0,0-.459,1.236,1.717,1.717,0,0,0,.459,1.211,1.539,1.539,0,0,0,1.174.489,1.52,1.52,0,0,0,1.159-.489,1.714,1.714,0,0,0,.459-1.211,1.748,1.748,0,0,0-.459-1.236A1.5,1.5,0,0,0,5759.151-14740.308Zm-1.519-10.145.319,8.852h2.322l.319-8.852Z" transform="translate(-5745.875 14756.365)" fill="#111"/>
</svg>
