<svg xmlns="http://www.w3.org/2000/svg" width="16" height="16" viewBox="0 0 16 16">
    <path data-name="패스 1363" d="M8 0a8 8 0 1 1-8 8 8 8 0 0 1 8-8z" style="fill:#4a4d9f"/>
    <path d="m-5179.381-9733.334-4.26-4.556a.222.222 0 0 1 .2-.35h2.726c.015-.29.042-.619.077-1 .447-2.993 2.04-4.4 4.7-4.6a4.2 4.2 0 0 1 3.071 1.348 4.414 4.414 0 0 1 1.274 3.252 3.46 3.46 0 0 0-1.135-2.372 3.373 3.373 0 0 0-2.387-.758 2.927 2.927 0 0 0-2.871 2.891 12.66 12.66 0 0 0-.036 1.24h3.107a.222.222 0 0 1 .2.35l-4.263 4.556a.242.242 0 0 1-.2.095.243.243 0 0 1-.203-.096z" transform="translate(5186.941 9745.232)" style="fill:#fff"/>
</svg>
