<svg xmlns="http://www.w3.org/2000/svg" width="17.926" height="20.156" viewBox="0 0 17.926 20.156">
  <g id="알림업_이트" data-name="알림업 이트" transform="translate(-383.368 -869.244)">
    <g id="그룹_2670" data-name="그룹 2670" transform="translate(7487.816 3931)">
      <g id="그룹_2678" data-name="그룹 2678">
        <path id="패스_2000" data-name="패스 2000" d="M-329.744,25366.492l-3.21-.051a1.144,1.144,0,0,1-1.146-1.143v-.092l.044-.09,1.3-2.564v-5.254c0-2.451,2.242-4.363,4.458-5.008v-.592a1.808,1.808,0,0,1,1.8-1.8,1.8,1.8,0,0,1,1.8,1.8v.662c2.153.7,4.243,2.568,4.243,4.938v5.33l1.349,2.572v.1a1.144,1.144,0,0,1-1.146,1.143l-2.919.051Z" transform="translate(-6768.902 -28410.896)" fill="#fff"/>
        <path id="패스_2002" data-name="패스 2002" d="M-7087.349-3059.475a9.609,9.609,0,0,0-2.49,3.458" transform="translate(-507.933 955.76) rotate(8)" fill="none" stroke="#fff" stroke-linecap="round" stroke-width="1.4"/>
        <path id="패스_2003" data-name="패스 2003" d="M2.491,3.458A9.607,9.607,0,0,1,0,0" transform="translate(-7087.511 -3057.232) rotate(172)" fill="none" stroke="#fff" stroke-linecap="round" stroke-width="1.4"/>
        <path id="사각형_1939" data-name="사각형 1939" d="M0,0H5A0,0,0,0,1,5,0V0A2,2,0,0,1,3,2H2A2,2,0,0,1,0,0V0A0,0,0,0,1,0,0Z" transform="translate(-7097.958 -3043.6)" fill="#fff"/>
      </g>
    </g>
  </g>
</svg>
