<svg xmlns="http://www.w3.org/2000/svg" width="24" height="20.571" viewBox="0 0 24 20.571">
    <path d="m-6511.537-11159.054-6.672-7.536a2.84 2.84 0 0 1-.793-1.921 2.428 2.428 0 0 1 .656-1.641 1.976 1.976 0 0 1 1.473-.708 2.368 2.368 0 0 1 1.647.794l4.922 3.718 12.125-12.064a1.754 1.754 0 0 1 1.295-.589 1.775 1.775 0 0 1 1.33.62 2.263 2.263 0 0 1 .551 1.5 2.265 2.265 0 0 1-.531 1.48l-13.347 16.344a1.768 1.768 0 0 1-1.33.624 1.767 1.767 0 0 1-1.326-.621z" transform="translate(6519.002 11179.001)" style="fill:#fff"/>
</svg>
