<svg xmlns="http://www.w3.org/2000/svg" width="70" height="67.999" viewBox="0 0 70 67.999">
    <path d="M35 68a35.668 35.668 0 0 1-13.624-2.672 34.958 34.958 0 0 1-11.126-7.287 33.849 33.849 0 0 1-7.5-10.807 33.214 33.214 0 0 1 0-26.468 33.849 33.849 0 0 1 7.5-10.807 34.958 34.958 0 0 1 11.126-7.286 36.07 36.07 0 0 1 27.247 0 34.958 34.958 0 0 1 11.125 7.286 33.849 33.849 0 0 1 7.5 10.807 33.214 33.214 0 0 1 0 26.468 33.849 33.849 0 0 1-7.5 10.807 34.958 34.958 0 0 1-11.125 7.286A35.668 35.668 0 0 1 35 68zM15.687 30.155A4.02 4.02 0 0 0 12.9 31.3a3.627 3.627 0 0 0-1.237 2.65 4.279 4.279 0 0 0 1.5 3.106l12.6 12.18a3.631 3.631 0 0 0 5.019 0l25.21-26.415A3.351 3.351 0 0 0 55.955 18a3.638 3.638 0 0 0-4.961-.051L28.1 37.446l-9.3-6.007a4.8 4.8 0 0 0-3.113-1.284z" transform="translate(.001 -.001)" style="fill:#5c61cb"/>
</svg>
