<svg xmlns="http://www.w3.org/2000/svg" width="18.659" height="18.01" viewBox="0 0 18.659 18.01">
    <path d="M8.343 18.184H4.72a1.374 1.374 0 0 1-1.372-1.374V10.2a1.372 1.372 0 0 1 .582-1.12 1.14 1.14 0 0 1 .117-.1l4.869-3.81a1.373 1.373 0 0 1 1.691 0l4.849 3.792a1.374 1.374 0 0 1 .783 1.239v6.609a1.374 1.374 0 0 1-1.372 1.373h-3.558v-4.668a1.374 1.374 0 0 0-1.372-1.372h-.221a1.374 1.374 0 0 0-1.372 1.372v4.668zM1.139 9.77A1.4 1.4 0 0 1 .506 8.7a1.332 1.332 0 0 1 .46-1.12L8.92.52a1.373 1.373 0 0 1 1.823 0l3.176 2.819V1.505a1.1 1.1 0 1 1 2.19 0V4.77a1.091 1.091 0 0 1-.09.434L18.7 7.58a1.333 1.333 0 0 1 .46 1.125 1.4 1.4 0 0 1-.632 1.064l-7.786-6.907a1.373 1.373 0 0 0-1.823 0L1.139 9.77z" transform="translate(-.502 -.174)" style="fill:#333"/>
</svg>
