<svg xmlns="http://www.w3.org/2000/svg" width="16" height="16" viewBox="0 0 16 16">
    <path data-name="패스 1363" d="M8 0a8 8 0 1 1-8 8 8 8 0 0 1 8-8z" style="fill:#4a4d9f"/>
    <path d="m-6515.89-11171.893-2.78-2.687a.94.94 0 0 1-.33-.685.8.8 0 0 1 .273-.585.887.887 0 0 1 .614-.252 1.049 1.049 0 0 1 .687.283l2.051 1.325 5.051-4.3a.79.79 0 0 1 .54-.21.8.8 0 0 1 .554.221.743.743 0 0 1 .229.536.738.738 0 0 1-.222.527l-5.561 5.827a.792.792 0 0 1-.554.222.791.791 0 0 1-.552-.222z" transform="translate(6522.5 11183.004)" style="fill:#fff"/>
</svg>
