<svg xmlns="http://www.w3.org/2000/svg" width="30.499" height="22.5" viewBox="0 0 30.499 22.5">
    <g transform="translate(-397.62 -872.5)">
        <rect data-name="사각형 1595" width="28" height="20" rx="1" transform="translate(398.12 873)" style="fill:none;stroke:#fff"/>
        <rect data-name="사각형 1596" width="28" height="6" rx="1" transform="translate(398.12 873)" style="fill:#fff"/>
        <path data-name="빼기 55" d="M-9387.381-6774h-1a5.506 5.506 0 0 1-5.5-5.5 5.506 5.506 0 0 1 5.5-5.5h1a5.506 5.506 0 0 1 5.5 5.5 5.506 5.506 0 0 1-5.5 5.5zm-3.112-6.429a.342.342 0 0 0-.344.339v.771a.342.342 0 0 0 .344.339h2.12v2.143a.34.34 0 0 0 .347.34h.884a.342.342 0 0 0 .344-.34v-2.143h2.117a.342.342 0 0 0 .345-.339v-.771a.342.342 0 0 0-.345-.339h-2.117v-2.143a.342.342 0 0 0-.344-.339h-.884a.339.339 0 0 0-.347.339v2.143z" transform="translate(9810 7669)" style="fill:#fff"/>
    </g>
</svg>
