<svg xmlns="http://www.w3.org/2000/svg" width="20.383" height="20" viewBox="0 0 20.383 20">
  <g id="IconColor" transform="translate(0)">
    <path id="빼기_49" data-name="빼기 49" d="M9.018,16.045h0a12.231,12.231,0,0,1-3.436-.56,9.1,9.1,0,0,1-3.824-2.191A6.181,6.181,0,0,1,0,8.671,9.862,9.862,0,0,1,.974,4.4,7.6,7.6,0,0,1,3.182,1.744,8.849,8.849,0,0,1,8.275,0l.154,0a12.512,12.512,0,0,1,4.118.732,6.335,6.335,0,0,1,3.326,2.675,5.112,5.112,0,0,1,.541,4.006,3.817,3.817,0,0,1-1.63,2.327,19.409,19.409,0,0,1-3.834,1.313,2.313,2.313,0,0,0-1.442.914,1.294,1.294,0,0,0,.025,1.158q.086.2.166.375l.011.024c.431.974.716,1.617.554,2.029a.766.766,0,0,1-.453.405A2.509,2.509,0,0,1,9.018,16.045Zm-3.15-4.023a.84.84,0,1,0,.84.84A.841.841,0,0,0,5.869,12.022ZM2.943,8.278a1.12,1.12,0,1,0,.962.543A1.119,1.119,0,0,0,2.943,8.278ZM13.8,4.786a1.891,1.891,0,0,0-.522.074,1.543,1.543,0,0,0-1.192,1.808,1.446,1.446,0,0,0,1.448.976,1.9,1.9,0,0,0,.522-.074A1.543,1.543,0,0,0,15.25,5.761,1.444,1.444,0,0,0,13.8,4.786Zm-9.325-1.6a1.448,1.448,0,0,0-1.124,2.38,1.466,1.466,0,0,0,1,.52c.044,0,.088.006.132.006A1.45,1.45,0,0,0,5.945,4.768a1.434,1.434,0,0,0-.34-1.06,1.47,1.47,0,0,0-1-.515C4.564,3.189,4.52,3.187,4.476,3.187Zm4.844-1.42A1.429,1.429,0,0,0,7.865,3.09,1.435,1.435,0,0,0,9.256,4.563h0l.079,0a1.43,1.43,0,0,0,1.456-1.323A1.435,1.435,0,0,0,9.4,1.77Z" transform="translate(4.423 0) rotate(16)" fill="#333"/>
  </g>
</svg>
