<svg xmlns="http://www.w3.org/2000/svg" width="10.865" height="11.224" viewBox="0 0 10.865 11.224">
  <g id="내용확인하기" transform="translate(-4.982)">
    <path id="패스_1676" data-name="패스 1676" d="M-1980-866.626h-10V-877h2.812v.259h-2.563v9.856h9.5v-2.659h.25v2.917Z" transform="translate(1995.382 877.45)" fill="#222" stroke="#222" stroke-linecap="round" stroke-linejoin="round" stroke-width="0.8"/>
    <path id="패스_1215" data-name="패스 1215" d="M257.313,22.442a.453.453,0,0,1-.32-.773l5.094-5.094a.453.453,0,1,1,.64.64l-5.094,5.094A.452.452,0,0,1,257.313,22.442Z" transform="translate(-247.195 -16.21)" fill="#222"/>
    <path id="패스" d="M4.814,5.507H0V.512A.5.5,0,0,1,.494,0,.5.5,0,0,1,.988.512v3.97H4.814a.513.513,0,0,1,0,1.024Z" transform="translate(15.847 5.507) rotate(180)" fill="#222"/>
  </g>
</svg>
