<svg xmlns="http://www.w3.org/2000/svg" width="15.668" height="22.197" viewBox="0 0 15.668 22.197">
    <path data-name="패스 1408" d="M15374.255-17065.807h-10.847a2.323 2.323 0 0 1-2.408-2.221v-17.752a2.329 2.329 0 0 1 2.408-2.225h10.847a2.331 2.331 0 0 1 2.413 2.225v5.545h-2.413v-3.992a.464.464 0 0 0-.481-.443h-9.884a.464.464 0 0 0-.481.443v11.316a.462.462 0 0 0 .481.443h9.884a.462.462 0 0 0 .481-.443v-9.539h2.413v14.422a2.326 2.326 0 0 1-2.413 2.221zm-5.875-3.883c-1 0-1.713.035-1.713.6 0 .654 1.037.654 2.239.654h.1c1.2 0 2.237 0 2.237-.654 0-.557-.739-.6-1.711-.6h-1.153z" transform="translate(-15361 17088.004)" style="fill:#fff"/>
</svg>
