<svg xmlns="http://www.w3.org/2000/svg" width="21.6" height="23.6" viewBox="0 0 21.6 23.6">
    <path data-name="패스 1434" d="M-393.877-1176a1.015 1.015 0 0 0 .983-1.043v-16.14a1.015 1.015 0 0 0-.983-1.043h-14.14a1.014 1.014 0 0 0-.982 1.043v16.14a1.015 1.015 0 0 0 .982 1.043zm0-1.043h-14.14v-16.14h14.14zm2.391-4.13h2.5a1.015 1.015 0 0 0 .982-1.043v-15.74a1.015 1.015 0 0 0-.982-1.043h-12.14a1.015 1.015 0 0 0-.982 1.043v2h.982v-2h12.14v15.74h-2.5v1.042z" transform="translate(409.3 1199.3)" style="stroke:#fff;fill:#fff;stroke-width:.6px"/>
    <path data-name="합치기 75" d="M-6482-2002.766zm0-3.367zm0-3.367z" transform="translate(6486.403 2019.766)" style="fill:none;stroke-width:1.4px;stroke:#fff"/>
</svg>
