<svg xmlns="http://www.w3.org/2000/svg" width="19.459" height="17.67" viewBox="0 0 19.459 17.67">
    <path data-name="빼기 64" d="M17.455 17.67H2a2 2 0 0 1-1.738-2.985l7.726-13.67a2 2 0 0 1 3.482 0l7.73 13.67a2 2 0 0 1-1.742 2.984zm-7.682-4.538h-.06a1.39 1.39 0 0 0-.7.325.877.877 0 0 0-.356.715 1 1 0 0 0 .305.752.876.876 0 0 0 .373.287 1.03 1.03 0 0 0 .411.087.922.922 0 0 0 .1 0 .938.938 0 0 0 .511-.2 1.187 1.187 0 0 0 .385-.606.881.881 0 0 0 .006-.573 1.275 1.275 0 0 0-.355-.51.99.99 0 0 0-.62-.277zm.052-7.782a1.15 1.15 0 0 0-.548.14.744.744 0 0 0-.364.364.92.92 0 0 0-.057.447l.4 5.705a.257.257 0 0 0 .173.173l.049.014a.826.826 0 0 0 .227.043h.031a.824.824 0 0 0 .305-.057.285.285 0 0 0 .18-.173l.495-5.706a1.543 1.543 0 0 0-.077-.447.583.583 0 0 0-.291-.345 1.086 1.086 0 0 0-.523-.159z" transform="translate(0 .001)" style="fill:#fff"/>
</svg>
