<svg xmlns="http://www.w3.org/2000/svg" width="15" height="15" viewBox="0 0 15 15">
  <path id="ν™•μΈν•„μ”" d="M-1943.5,3066a7.509,7.509,0,0,1-7.5-7.5,7.509,7.509,0,0,1,7.5-7.5,7.508,7.508,0,0,1,7.5,7.5A7.509,7.509,0,0,1-1943.5,3066Zm-.229-4.516a1.081,1.081,0,0,0-1.092,1.093,1.08,1.08,0,0,0,1.092,1.092,1.081,1.081,0,0,0,1.093-1.092A1.081,1.081,0,0,0-1943.728,3061.484Zm.052-8.135h-.046c-1.242.028-1.277.91-1.277,1.01l.384,5.7a.906.906,0,0,0,.887.518h.031a1.132,1.132,0,0,0,.977-.518l.36-5.7a.954.954,0,0,0-.277-.626A1.389,1.389,0,0,0-1943.676,3053.349Z" transform="translate(1951 -3051)" fill="#fff"/>
</svg>
