<svg xmlns="http://www.w3.org/2000/svg" width="14" height="14" viewBox="0 0 14 14">
    <path d="M7 14a7 7 0 1 1 7-7 7.008 7.008 0 0 1-7 7zm0-4.452c-.033 0-.072 0-.122.006s-.1.005-.146.007a.9.9 0 0 0-.535.157.787.787 0 0 0-.446.679.845.845 0 0 0 .383.714 1.1 1.1 0 0 0 .47.272 1.412 1.412 0 0 0 .425.071.666.666 0 0 0 .326-.071l.085-.046a.788.788 0 0 0 .426-.4.966.966 0 0 0 .078-.645 1.087 1.087 0 0 0-.444-.535h-.006C7.244 9.6 7.17 9.548 7 9.548zM7.114 2.1a4.668 4.668 0 0 0-1.121.158.889.889 0 0 0-.47.4.633.633 0 0 0-.062.236 3.025 3.025 0 0 0-.016.32v.333a1.646 1.646 0 0 0 .016.26 2.422 2.422 0 0 0 .032.375c.021.136.042.287.062.448s.027.339.047.514.036.362.048.575a2.675 2.675 0 0 0 .023.4l.039.273c.011.084.04.187.055.278s.029.234.04.4 0 .327.015.454v.021l.03.348a1.979 1.979 0 0 0 .157.617c.01.057.073.1.188.121a1.342 1.342 0 0 0 .275.027h.1a5.927 5.927 0 0 0 .815-.078.331.331 0 0 0 .228-.164 11.3 11.3 0 0 0 .117-.538A3.5 3.5 0 0 0 7.8 7.2a2.634 2.634 0 0 1 .016-.315l.015-.131.019-.144c.021-.1.042-.21.062-.333s.047-.288.078-.49c.009-.12.02-.244.031-.345a2.359 2.359 0 0 0 .015-.272c0-.089 0-.184.008-.291s.013-.238.023-.4a4.7 4.7 0 0 1 .055-.52c.025-.149.044-.3.055-.447A2.745 2.745 0 0 0 8.21 3.1a1.819 1.819 0 0 0-.063-.447.651.651 0 0 0-.375-.406 1.682 1.682 0 0 0-.658-.147z" style="fill:#999"/>
</svg>
