<svg id="IconSns" xmlns="http://www.w3.org/2000/svg" width="10.397" height="16.11" viewBox="0 0 10.397 16.11">
  <g id="그룹_1498" data-name="그룹 1498">
    <path id="패스_1408" data-name="패스 1408" d="M8.567,16.75H.952A.953.953,0,0,1,0,15.8V2.952A.953.953,0,0,1,.952,2H8.567a.953.953,0,0,1,.952.952V13.666H8.055V4.688a.273.273,0,0,0-.272-.272H1.737a.273.273,0,0,0-.272.272v8.128a.273.273,0,0,0,.272.272H9.52V15.8A.953.953,0,0,1,8.567,16.75Zm-4.077-2.2c-.614,0-1.049.029-1.049.4,0,.434.627.434,1.354.434h.076c.726,0,1.354,0,1.354-.434,0-.37-.435-.4-1.049-.4H4.491Z" transform="translate(0 -2)" fill="#fff"/>
  </g>
</svg>
