<svg xmlns="http://www.w3.org/2000/svg" width="10" height="9.166" viewBox="0 0 10 9.166">
  <path id="IconFeatherCheck" d="M-6515.89-11170.11l-2.781-3.359a1.306,1.306,0,0,1-.33-.855,1.12,1.12,0,0,1,.272-.73.807.807,0,0,1,.614-.315.96.96,0,0,1,.687.354l2.051,1.656,5.052-5.376a.711.711,0,0,1,.541-.263.72.72,0,0,1,.554.275,1.055,1.055,0,0,1,.229.671,1.048,1.048,0,0,1-.222.659l-5.56,7.283a.718.718,0,0,1-.555.277A.714.714,0,0,1-6515.89-11170.11Z" transform="translate(6519 11178.999)" fill="#ff5f2d"/>
</svg>
