<svg xmlns="http://www.w3.org/2000/svg" width="14" height="13.265" viewBox="0 0 14 13.265">
  <path id="확인시작" d="M1.211,7.618a5.648,5.648,0,1,1,5.648,5.647A5.648,5.648,0,0,1,1.211,7.618Zm1.255,0A4.393,4.393,0,1,0,6.858,3.225,4.4,4.4,0,0,0,2.466,7.618Zm5.99,1.377-2.036-1.2V6.127a.439.439,0,1,1,.878,0V7.3l1.624,1c.175.168.424.328.287.615a.375.375,0,0,1-.361.2A.7.7,0,0,1,8.456,8.995ZM9.22.169s2.721-.655,3.993.617.617,3.993.617,3.993ZM.786.786C2.059-.487,4.779.169,4.779.169L.169,4.779S-.487,2.059.786.786Z" fill="#fefefe"/>
</svg>
