<svg id="edit" xmlns="http://www.w3.org/2000/svg" width="22" height="22" viewBox="0 0 22 22">
  <path id="edit-2" data-name="edit" d="M3,22a3,3,0,0,1-3-3V3A3,3,0,0,1,3,0H19a3,3,0,0,1,3,3V19a3,3,0,0,1-3,3ZM1,3V19a2,2,0,0,0,2,2H19a2,2,0,0,0,2-2V3a2,2,0,0,0-2-2H3A2,2,0,0,0,1,3Zm5.95,9.546a.59.59,0,0,1,.148-.264L13.71,5.435l2.754,2.659v0l-6.61,6.846a.6.6,0,0,1-.157.114l0,0L4.829,17.389ZM14.4,4.72l1.046-1.083a.455.455,0,0,1,.625-.093l2.2,2.127A.456.456,0,0,1,18.2,6.3L17.156,7.381Z" fill="#333"/>
</svg>
