<svg xmlns="http://www.w3.org/2000/svg" width="15" height="15" viewBox="0 0 15 15">
  <path id="확인완료" d="M-1943.5,3066a7.509,7.509,0,0,1-7.5-7.5,7.509,7.509,0,0,1,7.5-7.5,7.5,7.5,0,0,1,5.67,2.591,1.032,1.032,0,0,0-.111-.006.93.93,0,0,0-.649.263l-6.062,5.376-2.461-1.656a1.241,1.241,0,0,0-.824-.354,1.039,1.039,0,0,0-.736.316,1.021,1.021,0,0,0-.328.73,1.191,1.191,0,0,0,.4.856l3.337,3.359a.925.925,0,0,0,.662.278.932.932,0,0,0,.666-.278l6.673-7.283a.943.943,0,0,0,.247-.468A7.494,7.494,0,0,1-1936,3058.5,7.509,7.509,0,0,1-1943.5,3066Z" transform="translate(1951 -3051)" fill="#fff"/>
</svg>
