<svg xmlns="http://www.w3.org/2000/svg" width="17.34" height="14.455" viewBox="0 0 17.34 14.455">
  <path id="복구" d="M-8607.236-4151.94l1.16-.941a5.8,5.8,0,0,0,7.79-1.111,5.793,5.793,0,0,0-.854-8.135,5.791,5.791,0,0,0-8.132.856,9.915,9.915,0,0,0-1.355,2.315l3.1.111-3.753,4.319-3.611-4.43h2.976a10.907,10.907,0,0,1,1.523-3.226,7.24,7.24,0,0,1,10.167-1.067,7.238,7.238,0,0,1,1.067,10.165,7.2,7.2,0,0,1-4.808,2.637,7.44,7.44,0,0,1-.818.045A7.18,7.18,0,0,1-8607.236-4151.94Zm2.824-5.69a1.786,1.786,0,0,1,1.786-1.785,1.786,1.786,0,0,1,1.785,1.785,1.784,1.784,0,0,1-1.785,1.785A1.785,1.785,0,0,1-8604.412-4157.631Z" transform="translate(8612.896 4164.857)" fill="#333"/>
</svg>
