<svg xmlns="http://www.w3.org/2000/svg" width="12" height="17" viewBox="0 0 12 17">
    <g data-name="그룹 1498">
        <path data-name="패스 1408" d="M15371.152-17071h-8.307a1.779 1.779 0 0 1-1.845-1.7v-13.594a1.783 1.783 0 0 1 1.845-1.705h8.307a1.785 1.785 0 0 1 1.849 1.705v4.242h-1.849v-3.055a.355.355 0 0 0-.368-.34h-7.57a.355.355 0 0 0-.368.34v8.666a.356.356 0 0 0 .368.344h7.57a.356.356 0 0 0 .368-.344v-7.3h1.848v11.045a1.782 1.782 0 0 1-1.848 1.696zm-4.5-2.977c-.769 0-1.312.033-1.312.465 0 .5.795.5 1.715.5h.078c.92 0 1.714 0 1.714-.5 0-.428-.567-.465-1.311-.465h-.884z" transform="translate(-15361.001 17088.004)" style="fill:#999"/>
    </g>
</svg>
