<svg xmlns="http://www.w3.org/2000/svg" width="21.599" height="23.6" viewBox="0 0 21.599 23.6">
  <path id="IconreservPlus" d="M-10787.717-1983.4a1.316,1.316,0,0,1-1.283-1.346v-16.138a1.314,1.314,0,0,1,1.283-1.343h14.14a1.315,1.315,0,0,1,1.283,1.343v16.138a1.317,1.317,0,0,1-1.283,1.346Zm.3-1.644h13.541v-15.539h-13.541Zm15.932-3.531v-1.644h2.5v-15.141h-11.54v2h-1.584v-2.3a1.316,1.316,0,0,1,1.283-1.343h12.142a1.313,1.313,0,0,1,1.28,1.343v15.74a1.314,1.314,0,0,1-1.28,1.343Zm-13.11-.728v-1.4h7.8v1.4Zm0-3.366v-1.4h7.8v1.4Zm0-3.368v-1.4h7.8v1.4Z" transform="translate(10789 2006.999)" fill="#fff"/>
</svg>
