<svg xmlns="http://www.w3.org/2000/svg" width="22.496" height="23.947" viewBox="0 0 22.496 23.947">
  <path id="Colorchip" d="M0,23.947V21.633H22.5v2.314Zm9.894-3.576L2.2,15.955a2.56,2.56,0,0,1-.885-3.523L8.533,0,20.625,6.941l-7.22,12.432A2.644,2.644,0,0,1,11.13,20.7,2.473,2.473,0,0,1,9.894,20.371Zm-6.045-8.52,12.764-1.786,1.38-2.376L9.2,2.642ZM17.89,17.417c0-1.517,1.463-5.829,2.28-5.829.908,0,2.28,4.312,2.28,5.829a2.545,2.545,0,0,1-2.28,2.745A2.545,2.545,0,0,1,17.89,17.417Z" fill="#fff"/>
</svg>
