<svg xmlns="http://www.w3.org/2000/svg" width="24.002" height="21.962" viewBox="0 0 24.002 21.962">
  <path id="over" d="M22.957,21.961l-3.506-3.5v-.554l-.19-.2a4.565,4.565,0,1,1,.491-.491l.2.189H20.5L24,20.917l-1.043,1.044h0ZM12.92,14.222a3.385,3.385,0,1,0,3.386-3.386A3.389,3.389,0,0,0,12.92,14.222ZM2,21.435a2,2,0,0,1-2-2V2A2,2,0,0,1,2,0H17.393a2,2,0,0,1,2,2V8.986a6.126,6.126,0,0,0-7.414,1H4.19V12.03h6.448a6.17,6.17,0,0,0-.4,2.877H4.19v2.047h6.626A6.129,6.129,0,0,0,19.388,19.6a2.011,2.011,0,0,1-1.994,1.836ZM4.19,7.1H15.768V5.055H4.19Z" fill="#111"/>
</svg>
