<svg xmlns="http://www.w3.org/2000/svg" width="16" height="16" viewBox="0 0 16 16">
  <g id="공유클릭" transform="translate(-106 -68)">
    <rect id="사각형_1889" data-name="사각형 1889" width="16" height="16" transform="translate(106 68)" fill="#4a4d9f"/>
    <path id="share" d="M3616.21-2546.7a1.586,1.586,0,0,1,.136-.646l-3.322-2.351a1.589,1.589,0,0,1-.85.245,1.6,1.6,0,0,1-1.6-1.595,1.6,1.6,0,0,1,1.6-1.595,1.59,1.59,0,0,1,1.1.44l3.112-2.462a1.589,1.589,0,0,1-.177-.73,1.6,1.6,0,0,1,1.595-1.595,1.6,1.6,0,0,1,1.595,1.595,1.6,1.6,0,0,1-1.595,1.6,1.587,1.587,0,0,1-.431-.059,1.257,1.257,0,0,1-.157-.053,1.573,1.573,0,0,1-.282-.146l-3.23,2.558a1.6,1.6,0,0,1,.065.452,1.587,1.587,0,0,1-.186.747l3.273,2.317a1.587,1.587,0,0,1,.948-.312,1.6,1.6,0,0,1,1.595,1.594,1.6,1.6,0,0,1-1.595,1.6A1.6,1.6,0,0,1,3616.21-2546.7Zm.241-.843-3.239-2.292Z" transform="translate(-3501.58 2627)" fill="#fff"/>
  </g>
</svg>
