<svg xmlns="http://www.w3.org/2000/svg" width="13.06" height="15.747" viewBox="0 0 13.06 15.747">
    <path d="M-872.533-236.865a.744.744 0 0 1-.69-.788l-1.157-7.283h-.064a.882.882 0 0 1-.859-.784v-1.57a.746.746 0 0 1 .695-.785h10.39a.745.745 0 0 1 .694.785v1.57a.915.915 0 0 1-.89.784h-.064l-1.126 7.283a.744.744 0 0 1-.69.788zm4.6-2.613h.8l.522-5.745h-.8zm-1.884 0h.8v-5.745h-.8zm-1.848 0h.8l-.55-5.745h-.8zm-3.974-9.334c-.4 0-.4-2.191 0-2.191h3.662v-.805a.771.771 0 0 1 .733-.8h3.663a.771.771 0 0 1 .733.8v.808h3.662c.405 0 .405 2.191 0 2.191z" transform="translate(875.944 252.612)" style="fill:#555"/>
</svg>
