<svg xmlns="http://www.w3.org/2000/svg" width="60" height="82.001" viewBox="0 0 60 82.001">
  <g id="IconSns_w" transform="translate(0 0.001)">
    <g id="그룹_1498" data-name="그룹 1498">
      <path id="패스_1408" data-name="패스 1408" d="M15411.751-17006h-41.527c-5.088,0-9.225-3.678-9.225-8.205v-65.58c0-4.512,4.137-8.215,9.225-8.215h41.527c5.1,0,9.248,3.7,9.248,8.215v20.482h-9.248v-14.744a1.743,1.743,0,0,0-1.842-1.641h-37.852a1.741,1.741,0,0,0-1.834,1.641v41.8a1.736,1.736,0,0,0,1.834,1.648h37.852a1.738,1.738,0,0,0,1.842-1.648v-35.234H15421v53.277C15421-17009.682,15416.849-17006,15411.751-17006Zm-22.492-14.35c-3.842,0-6.562.143-6.562,2.23,0,2.422,3.977,2.422,8.572,2.422h.393c4.6,0,8.572,0,8.572-2.422,0-2.062-2.838-2.23-6.555-2.23h-4.42Z" transform="translate(-15360.999 17088.004)" fill="#fff"/>
    </g>
  </g>
</svg>
