<svg xmlns="http://www.w3.org/2000/svg" width="18.053" height="13.239" viewBox="0 0 18.053 13.239">
    <path d="m-6513.384-11166.16-5.019-4.852a1.7 1.7 0 0 1-.6-1.236 1.443 1.443 0 0 1 .493-1.057 1.6 1.6 0 0 1 1.108-.455 1.9 1.9 0 0 1 1.239.512l3.7 2.393 9.12-7.765a1.436 1.436 0 0 1 .975-.379 1.438 1.438 0 0 1 1 .4 1.341 1.341 0 0 1 .414.967 1.338 1.338 0 0 1-.4.953l-10.04 10.52a1.433 1.433 0 0 1-1 .4 1.431 1.431 0 0 1-.99-.401z" transform="translate(6519 11178.999)" style="fill:#fff"/>
</svg>
