<svg xmlns="http://www.w3.org/2000/svg" width="40" height="40" viewBox="0 0 40 40">
    <path d="M20 40a20.005 20.005 0 0 1-7.785-38.426 20.005 20.005 0 0 1 15.57 36.856A19.875 19.875 0 0 1 20 40zm-.062-14.052c-.046 0-.093 0-.138.007a3.165 3.165 0 0 0-1.568.714 1.906 1.906 0 0 0-.8 1.568 2.163 2.163 0 0 0 .686 1.652 1.93 1.93 0 0 0 .84.63 2.355 2.355 0 0 0 .925.193c.073 0 .148 0 .223-.011a2.125 2.125 0 0 0 1.148-.434 2.608 2.608 0 0 0 .868-1.33 1.9 1.9 0 0 0 .014-1.26 2.824 2.824 0 0 0-.8-1.12 2.257 2.257 0 0 0-1.398-.608zm.114-17.088a2.634 2.634 0 0 0-1.232.308 1.658 1.658 0 0 0-.818.8 1.987 1.987 0 0 0-.127.982l.9 12.527a.566.566 0 0 0 .39.378l.105.03a1.9 1.9 0 0 0 .519.1h.068a1.875 1.875 0 0 0 .686-.126.636.636 0 0 0 .406-.378l1.108-12.527a3.337 3.337 0 0 0-.174-.982 1.285 1.285 0 0 0-.654-.756 2.45 2.45 0 0 0-1.178-.354z" transform="translate(0 -.002)" style="fill:#555"/>
</svg>
