<svg xmlns="http://www.w3.org/2000/svg" width="109" height="40" viewBox="0 0 109 40">
  <g id="AdminLogo" transform="translate(9 7.517)">
    <circle id="타원_490" data-name="타원 490" cx="20" cy="20" r="20" transform="translate(-9 -7.517)" fill="#fff"/>
    <path id="합치기_48" data-name="합치기 48" d="M29.119,22.79a8.081,8.081,0,0,1-2.286-5.9A7.7,7.7,0,0,1,34.842,8.8a6.882,6.882,0,0,1,4.26,1.322V3.711a.514.514,0,0,1,.514-.514h3.47a.515.515,0,0,1,.515.514v20.6a.515.515,0,0,1-.515.514H39.754a.514.514,0,0,1-.514-.514v-.694a6.93,6.93,0,0,1-4.4,1.4A8.024,8.024,0,0,1,29.119,22.79Zm-1.771-5.9a7.213,7.213,0,0,0,7.494,7.6,6.111,6.111,0,0,0,4.912-2.11,6.111,6.111,0,0,1-4.912,2.11,7.213,7.213,0,0,1-7.494-7.6Zm12.407,7.412h3.331v0Zm-8.4-7.412a3.9,3.9,0,1,0,7.8,0,3.9,3.9,0,1,0-7.8,0Zm8.312,0a4.419,4.419,0,1,0-8.826,0,4.419,4.419,0,1,1,8.826,0ZM20.378,24.986a.708.708,0,0,1-.639-.4L12.256,9.412l-7.4,15.173a.705.705,0,0,1-.641.4H.713a.714.714,0,0,1-.6-.335.705.705,0,0,1-.036-.689L11.623.4a.716.716,0,0,1,.639-.4A.709.709,0,0,1,12.9.4L24.547,23.958a.712.712,0,0,1-.639,1.028Zm-.178-.624a.2.2,0,0,0,.178.11h3.53a.2.2,0,0,0,.2-.2.2.2,0,0,1-.2.2h-3.53A.2.2,0,0,1,20.2,24.362ZM.545,24.378a.2.2,0,0,0,.167.094h3.5A.2.2,0,0,0,4.4,24.36L12.254,8.244,4.4,24.36a.2.2,0,0,1-.179.112H.713a.2.2,0,0,1-.167-.094.192.192,0,0,1-.031-.107A.192.192,0,0,0,.545,24.378Zm95.47.442a.514.514,0,0,1-.514-.514v-8.05a3.719,3.719,0,0,0-.792-2.6,2.9,2.9,0,0,0-2.219-.8c-2.336,0-3.622,1.4-3.622,3.955v7.5a.514.514,0,0,1-.514.514H84.886a.515.515,0,0,1-.515-.514V9.484a.515.515,0,0,1,.515-.515h3.3a.515.515,0,0,1,.514.515V10.2a7.486,7.486,0,0,1,4.592-1.4c4.2,0,6.705,2.621,6.705,7.009v8.494a.515.515,0,0,1-.515.514Zm0-.514h3.469v0Zm-11.129,0h3.469v-7.5c0-2.969,1.665-4.469,4.135-4.469,2.221,0,3.525,1.277,3.525,3.914,0-2.637-1.3-3.914-3.525-3.914-2.47,0-4.135,1.5-4.135,4.469v7.5Zm3.3-12.908v0ZM76.864,24.82a.515.515,0,0,1-.515-.514V9.484a.515.515,0,0,1,.515-.515h3.469a.514.514,0,0,1,.514.515V24.306a.514.514,0,0,1-.514.514Zm0-.514h3.469v0Zm-7.91.514a.514.514,0,0,1-.515-.514v-8.05c0-2.288-.921-3.4-2.816-3.4-2.125,0-3.344,1.431-3.344,3.928v7.522a.515.515,0,0,1-.515.514h-3.47a.514.514,0,0,1-.514-.514v-8.05c0-2.288-.922-3.4-2.817-3.4-2.155,0-3.344,1.395-3.344,3.928v7.522a.514.514,0,0,1-.514.514h-3.47a.515.515,0,0,1-.515-.514V9.484a.515.515,0,0,1,.515-.515h3.3a.514.514,0,0,1,.514.515v.683A7.029,7.029,0,0,1,55.8,8.8a6.232,6.232,0,0,1,5.038,2.156A7.6,7.6,0,0,1,66.344,8.8a6.555,6.555,0,0,1,4.745,1.721,7.165,7.165,0,0,1,1.848,5.288v8.494a.514.514,0,0,1-.514.514Zm0-.514h3.47v0Zm-10.659,0h3.47V16.784c0-2.942,1.582-4.441,3.858-4.441,2.11,0,3.331,1.277,3.331,3.914,0-2.637-1.221-3.914-3.331-3.914-2.276,0-3.858,1.5-3.858,4.441v7.522Zm-10.658,0h3.47V16.784c0-2.942,1.554-4.441,3.857-4.441,2.111,0,3.331,1.277,3.331,3.914,0-2.637-1.22-3.914-3.331-3.914-2.3,0-3.857,1.5-3.857,4.441v7.522Zm3.3-12.936v0ZM75.878,4.959a2.638,2.638,0,0,1,2.734-2.595,2.572,2.572,0,0,1,2.735,2.511,2.737,2.737,0,0,1-5.469.084Zm.514,0a2.223,2.223,0,0,0,4.442-.084,2.223,2.223,0,0,1-4.442.084Z" transform="translate(0)" fill="#111"/>
  </g>
</svg>
