<svg id="imggg" xmlns="http://www.w3.org/2000/svg" width="40" height="40" viewBox="0 0 40 40">
  <rect id="사각형_1702" data-name="사각형 1702" width="40" height="40" fill="none" opacity="0"/>
  <path id="img" d="M20.6,18H1.4A1.4,1.4,0,0,1,0,16.6V1.4A1.4,1.4,0,0,1,1.4,0H20.6A1.4,1.4,0,0,1,22,1.4V16.6A1.4,1.4,0,0,1,20.6,18ZM9.422,6.079a1,1,0,0,0-.775.367L1.758,14.867A1,1,0,0,0,2.533,16.5H19.466a1,1,0,0,0,.811-1.584L15.734,8.624a1,1,0,0,0-1.623,0l-1,1.384L10.2,6.446A1,1,0,0,0,9.422,6.079Zm7-2.578a2,2,0,1,0,2,2A2,2,0,0,0,16.423,3.5Z" transform="translate(9 10)" fill="#fff"/>
</svg>
