<svg id="link" xmlns="http://www.w3.org/2000/svg" width="40" height="40" viewBox="0 0 40 40">
  <rect id="사각형_1702" data-name="사각형 1702" width="40" height="40" fill="none" opacity="0"/>
  <path id="합치기_74" data-name="합치기 74" d="M-6686-4561.455v-5.182a3.48,3.48,0,0,1,3.5-3.454,3.665,3.665,0,0,1,.577.046c.012.184.044.391.078.611a5.754,5.754,0,0,1,.1,1.238,1.736,1.736,0,0,0-.751-.168,1.742,1.742,0,0,0-1.75,1.727v5.182a1.742,1.742,0,0,0,1.75,1.728,1.742,1.742,0,0,0,1.75-1.728v-2.938a4.6,4.6,0,0,0,1.749-1.091v4.03a3.481,3.481,0,0,1-3.5,3.455A3.482,3.482,0,0,1-6686-4561.455Zm2.618-3.564c-.01-.168-.032-.352-.054-.546a6.747,6.747,0,0,1-.063-1.381,1.756,1.756,0,0,0,1,.31,1.741,1.741,0,0,0,1.75-1.726v-5.183a1.74,1.74,0,0,0-1.75-1.726,1.739,1.739,0,0,0-1.749,1.726v2.7a3.5,3.5,0,0,0-1.751,1.061v-3.76a3.482,3.482,0,0,1,3.5-3.454,3.481,3.481,0,0,1,3.5,3.454v5.183a3.481,3.481,0,0,1-3.5,3.454A3.536,3.536,0,0,1-6683.383-4565.02Z" transform="matrix(0.719, 0.695, -0.695, 0.719, 1653.636, 7947.093)" fill="#fff"/>
</svg>
