<svg xmlns="http://www.w3.org/2000/svg" width="16" height="11.685" viewBox="0 0 16 11.685">
  <g id="Icon_feather-eye" data-name="Icon feather-eye" transform="translate(0 -0.896)">
    <path id="패스_803" data-name="패스 803" d="M.667,6.582A9.573,9.573,0,0,1,8,2.667a9.573,9.573,0,0,1,7.333,3.915A9.573,9.573,0,0,1,8,10.5,9.573,9.573,0,0,1,.667,6.582Z" transform="translate(0 1.418)" fill="none" stroke="#333" stroke-linecap="round" stroke-linejoin="round" stroke-width="1.333"/>
    <path id="패스_804" data-name="패스 804" d="M10,8A2,2,0,1,1,8,6,2,2,0,0,1,10,8Z" fill="none" stroke="#333" stroke-linecap="round" stroke-linejoin="round" stroke-width="1.333"/>
    <path id="패스_1252" data-name="패스 1252" d="M2.316,2.485,3.188,5.4" transform="translate(-1.183 1.179) rotate(-20)" fill="none" stroke="#333" stroke-linecap="round" stroke-width="1"/>
    <path id="패스_1253" data-name="패스 1253" d="M0,2.918.872,0" transform="translate(13.663 5.465) rotate(-160)" fill="none" stroke="#333" stroke-linecap="round" stroke-width="1"/>
    <path id="패스_1254" data-name="패스 1254" d="M0,2.295.708,0" transform="translate(8.709 3.867) rotate(162)" fill="none" stroke="#333" stroke-linecap="round" stroke-width="1"/>
  </g>
</svg>
