<svg xmlns="http://www.w3.org/2000/svg" width="15.73" height="16.169" viewBox="0 0 15.73 16.169">
    <path data-name="빼기 39" d="M11.589 12.83H1.054A1.063 1.063 0 0 1 0 11.761V1.069A1.063 1.063 0 0 1 1.054 0h7.94a2.013 2.013 0 0 0-.039.4v.135h-7.9a.532.532 0 0 0-.527.535v10.691a.532.532 0 0 0 .527.535h10.534a.531.531 0 0 0 .526-.535V3.742h.107a2.013 2.013 0 0 0 .419-.044v8.063a1.062 1.062 0 0 1-1.052 1.069z" transform="translate(.2 3.138)" style="stroke:#111;stroke-width:.4px;fill:#111"/>
    <path d="M.017 18.595 0 17.379l3.486-.06-.063 1.276c0 .67-.763 1.213-1.7 1.213S.017 19.265.017 18.595zM.041 16.7V8.885H3.45V16.7zm-.054-8.565 1.462-3.38v-.026L.29 5.79c-.087.081-.271.029-.409-.114S-.3 5.351-.211 5.27l3.692-3.378c.087-.08.27-.029.409.115s.179.325.092.4L1.9 4.316v.5l1.355 3.319z" transform="rotate(-137 4.41 8.216)" style="fill:#111"/>
</svg>
