<svg xmlns="http://www.w3.org/2000/svg" width="13.546" height="13.416" viewBox="0 0 13.546 13.416">
  <g id="check" transform="translate(0.2)">
    <path id="빼기_39" data-name="빼기 39" d="M11.589,12.83H1.054A1.063,1.063,0,0,1,0,11.761V1.069A1.063,1.063,0,0,1,1.054,0h7.94a2.013,2.013,0,0,0-.039.4V.535h-7.9a.532.532,0,0,0-.527.535V11.761a.532.532,0,0,0,.527.535H11.589a.531.531,0,0,0,.526-.535V3.742h.107a2.013,2.013,0,0,0,.419-.044v8.063A1.062,1.062,0,0,1,11.589,12.83Z" transform="translate(0 0.385)" fill="#333" stroke="#333" stroke-width="0.4"/>
    <path id="Icon_feather-check" data-name="Icon feather-check" d="M5.016,11.333a.391.391,0,0,1-.293-.138L1.04,7.014a.686.686,0,0,1-.082-.971c.355-.394.736-.089.9.095l3.16,2.4,7.061-7.066a.381.381,0,0,1,.587,0,.517.517,0,0,1,0,.666L5.309,11.2A.391.391,0,0,1,5.016,11.333Z" transform="translate(0.561 -1.333)" fill="#333"/>
  </g>
</svg>
