<svg xmlns="http://www.w3.org/2000/svg" width="23.999" height="24" viewBox="0 0 23.999 24">
    <path d="M12 24A12 12 0 0 1 3.515 3.515a12 12 0 0 1 16.97 16.971A11.921 11.921 0 0 1 12 24zM5.063 9.818a.537.537 0 0 0-.348.13l-.122.1c-.291.247-.412.349-.479.421l-1.855 1.65a.5.5 0 0 0-.14.576.548.548 0 0 0 .073.129.57.57 0 0 0 .273.19.465.465 0 0 0 .134.022l1.068.05A7.592 7.592 0 0 0 4.11 15.4a7.882 7.882 0 0 0 1.19 2.182 9.706 9.706 0 0 0 4.188 3.23l.062.018.074.021a6.579 6.579 0 0 0 1.927.281 10.248 10.248 0 0 0 2.927-.491 8.249 8.249 0 0 0 2.6-1.222 6.282 6.282 0 0 0 2.281-3.176.5.5 0 0 0-.076-.482l-.008-.006a.514.514 0 0 0-.249-.179.042.042 0 0 1-.022 0l-1.152-.394-.009-.006a.562.562 0 0 0-.158-.023.545.545 0 0 0-.515.349c-.531 1.553-1.7 2.257-3.424 2.889a5.132 5.132 0 0 1-1.445.2 5.928 5.928 0 0 1-1.728-.265 6.467 6.467 0 0 1-3.206-2.2 5.332 5.332 0 0 1-.807-1.482 5.188 5.188 0 0 1-.294-1.427l1.148.057H7.435a.534.534 0 0 0 .5-.3l.008-.027a.532.532 0 0 0-.065-.492l-.078-.06.011-.008a.085.085 0 0 1 .026.021.348.348 0 0 0-.027-.031 249.3 249.3 0 0 1-1.44-1.461l-.912-.936v-.007a.579.579 0 0 0-.228-.127.189.189 0 0 0-.049-.014.475.475 0 0 0-.118-.014zm11.153 1.517a179.167 179.167 0 0 1 1.446 1.483l.923.935v.008a.591.591 0 0 0 .225.129.439.439 0 0 0 .047.012.52.52 0 0 0 .123.014.552.552 0 0 0 .32-.1l.012-.012.012-.007a6.914 6.914 0 0 0 .6-.536l1.854-1.639a.506.506 0 0 0 .146-.556.4.4 0 0 0-.08-.157.526.526 0 0 0-.273-.184.675.675 0 0 0-.133-.027l-1.063-.047a7.856 7.856 0 0 0-.442-2.313 7.984 7.984 0 0 0-1.189-2.183A9.284 9.284 0 0 0 14.6 2.984a1.26 1.26 0 0 0-.151-.047 6.988 6.988 0 0 0-2.047-.3 9.935 9.935 0 0 0-2.837.45 6.671 6.671 0 0 0-4.885 4.4.509.509 0 0 0 .074.481v.01a.553.553 0 0 0 .26.182h.008c.005 0 .008 0 .01.006l1.156.392.009.005a.56.56 0 0 0 .164.025.527.527 0 0 0 .506-.357c.542-1.555 1.714-2.255 3.433-2.88a5.192 5.192 0 0 1 1.449-.2 5.9 5.9 0 0 1 1.729.265 6.4 6.4 0 0 1 3.2 2.2 5.147 5.147 0 0 1 1.1 2.9l-1.147-.055H16.6a.536.536 0 0 0-.487.305.542.542 0 0 0 .05.519l.074.055-.008.012a.031.031 0 0 1-.013-.016zm-1.816-8.1a6.639 6.639 0 0 0-1.993-.3 8.936 8.936 0 0 0-1.975.234 8.739 8.739 0 0 1 1.972-.237 6.709 6.709 0 0 1 1.954.283l.016.006.026.009z" transform="translate(-.001)" style="fill:#fff"/>
</svg>
