<svg xmlns="http://www.w3.org/2000/svg" width="19.775" height="23.843" viewBox="0 0 19.775 23.843">
    <path d="M-870.777-228.769a1.124 1.124 0 0 1-1.049-1.188l-1.753-11.027h-.1a1.344 1.344 0 0 1-1.3-1.188v-2.378a1.125 1.125 0 0 1 1.049-1.188h15.737a1.125 1.125 0 0 1 1.049 1.188v2.378a1.392 1.392 0 0 1-1.346 1.188h-.1l-1.706 11.027a1.124 1.124 0 0 1-1.048 1.188zm-4.707-18.088c-.613 0-.613-3.317 0-3.317h5.545c0-1.893.5-2.438 1.109-2.438h5.546c.613 0 1.109.545 1.109 2.438h5.545c.613 0 .613 3.317 0 3.317z" transform="translate(875.944 252.612)" style="fill:#999"/>
</svg>
