<svg xmlns="http://www.w3.org/2000/svg" width="13.06" height="15.746" viewBox="0 0 13.06 15.746">
  <path id="Icontr" d="M-872.532-236.866a.743.743,0,0,1-.693-.785l-1.157-7.283h-.063a.888.888,0,0,1-.859-.785v-1.571a.743.743,0,0,1,.693-.785h10.393a.743.743,0,0,1,.693.785v1.571a.919.919,0,0,1-.889.785h-.063l-1.127,7.283a.742.742,0,0,1-.692.785Zm-3.109-11.946c-.4,0-.4-2.191,0-2.191h3.662v-.805a.771.771,0,0,1,.733-.8h3.663a.771.771,0,0,1,.733.8V-251h3.662c.405,0,.405,2.191,0,2.191Z" transform="translate(875.944 252.612)"/>
</svg>
