<svg xmlns="http://www.w3.org/2000/svg" width="28.184" height="24.919" viewBox="0 0 28.184 24.919">
    <path data-name="빼기 56" d="M3699 4245h-16a2 2 0 0 1-2-2v-20a2 2 0 0 1 2-2h16a2 2 0 0 1 2 2v4.07a7.12 7.12 0 0 0-1-.071 7 7 0 0 0-2.242.366v-1.145h-13.915v1.454H3697a7.015 7.015 0 0 0-3.423 3.545h-9.731v1.454h9.283a7.036 7.036 0 0 0 .352 3.872h-9.635V4238h10.412a7.012 7.012 0 0 0 5.745 3 7.175 7.175 0 0 0 1-.071V4243a2 2 0 0 1-2.003 2z" transform="translate(-3681 -4221)" style="fill:#fff"/>
    <path data-name="타원 491 - 윤곽선" d="M7 1.167A5.833 5.833 0 1 0 12.833 7 5.84 5.84 0 0 0 7 1.167M7 0a7 7 0 1 1-7 7 7 7 0 0 1 7-7z" transform="translate(12 6)" style="fill:#fff"/>
    <path data-name="패스 1275" d="m55.989 33.156 2.619 5.365" transform="rotate(-13 -24.371 169.305)" style="fill:none;stroke:#fff;stroke-linecap:round;stroke-width:1.4px"/>
</svg>
