<svg xmlns="http://www.w3.org/2000/svg" width="22.811" height="16.63" viewBox="0 0 22.811 16.63">
  <g id="IconAddaccount" transform="translate(-382.62 -874.934)">
    <path id="패스_1109" data-name="패스 1109" d="M4.53-10.66H5.75v-3.462H9.14V-15.2H5.75V-18.66H4.53V-15.2H1.14v1.075H4.53Z" transform="translate(381.98 894.094)" fill="#fff" stroke="#fff" stroke-width="1"/>
    <path id="패스_810" data-name="패스 810" d="M-366.753,280.6s-.556-3.319,0-4.462a3.377,3.377,0,0,1,2.224-1.8,15.331,15.331,0,0,1,6.022-1.022,15.283,15.283,0,0,1,6.05,1.043,3.4,3.4,0,0,1,2.018,1.9c.549,1.139.177,4.336.177,4.336Zm4.78-12.134A3.467,3.467,0,0,1-358.507,265a3.467,3.467,0,0,1,3.466,3.466,3.466,3.466,0,0,1-3.466,3.466A3.466,3.466,0,0,1-361.973,268.466Z" transform="translate(755.569 610.965)" fill="#fff"/>
  </g>
</svg>
