<svg xmlns="http://www.w3.org/2000/svg" width="364.51" height="14.703" viewBox="0 0 364.51 14.703">
  <path id="discount" d="M7.666,14.2a.46.46,0,1,1,0-.92h5.492a.141.141,0,0,1-.027-.028L.083.718A.444.444,0,0,1,.056.245.487.487,0,0,1,.482,0H363.518A.472.472,0,0,1,364,.461a.472.472,0,0,1-.482.46H1.391L13.929,12.739l0,.007V7.3a.482.482,0,0,1,.964,0v6.444a.471.471,0,0,1-.481.46Zm6.268-.92v-.034q-.012.017-.026.034Z" transform="translate(0.259 0.25)" fill="#aaa" stroke="#aaa" stroke-linejoin="round" stroke-width="0.5"/>
</svg>
