<svg xmlns="http://www.w3.org/2000/svg" width="23.17" height="19.681" viewBox="0 0 23.17 19.681">
    <path data-name="다각형 30" d="M9.021 4.224a3 3 0 0 1 5.129 0l6.254 10.3a3 3 0 0 1-2.564 4.557H5.331a3 3 0 0 1-2.564-4.557z" style="fill:none;stroke:#707070;stroke-width:1.2px"/>
    <path data-name="패스 1287" d="M3.613-11.632 3.4-5.6H1.814L1.6-11.632zm-.981 9.254a1.046 1.046 0 0 1-.8-.334 1.164 1.164 0 0 1-.311-.825 1.2 1.2 0 0 1 .311-.844 1.036 1.036 0 0 1 .8-.34 1.024 1.024 0 0 1 .79.34 1.2 1.2 0 0 1 .311.844 1.164 1.164 0 0 1-.311.825 1.033 1.033 0 0 1-.79.334z" transform="translate(9.056 18.821)" style="fill:#555"/>
</svg>
