<svg xmlns="http://www.w3.org/2000/svg" width="24" height="24" viewBox="0 0 24 24">
  <path id="IconSave_W" d="M-2928-1225a11.923,11.923,0,0,1-8.486-3.515A11.921,11.921,0,0,1-2940-1237a11.923,11.923,0,0,1,3.515-8.486A11.923,11.923,0,0,1-2928-1249a11.922,11.922,0,0,1,8.485,3.515A11.923,11.923,0,0,1-2916-1237a11.921,11.921,0,0,1-3.514,8.485A11.922,11.922,0,0,1-2928-1225Zm-6.582-13.358a1.415,1.415,0,0,0-.982.405,1.27,1.27,0,0,0-.436.935,1.509,1.509,0,0,0,.528,1.1l4.448,4.3a1.263,1.263,0,0,0,.885.355,1.268,1.268,0,0,0,.886-.355l8.9-9.322a1.186,1.186,0,0,0,.354-.844,1.185,1.185,0,0,0-.367-.857,1.274,1.274,0,0,0-.887-.354,1.269,1.269,0,0,0-.864.336l-8.082,6.881-3.282-2.121A1.7,1.7,0,0,0-2934.582-1238.358Z" transform="translate(2940 1249)" fill="#fff"/>
</svg>
