<svg xmlns="http://www.w3.org/2000/svg" width="20.434" height="19.841" viewBox="0 0 20.434 19.841">
    <g style="fill:#333">
        <path d="M14.817 19.241a.786.786 0 0 1-.555-.225l-.337-.333-3.895-3.888a.783.783 0 0 1 0-1.107.798.798 0 0 1 1.117 0l2.889 2.9v-14a.788.788 0 0 1 1.576 0v13.989l2.88-2.888a.786.786 0 0 1 .556-.229.785.785 0 0 1 .786.777.782.782 0 0 1-.23.558l-4.23 4.22a.78.78 0 0 1-.557.226zM4.824 17.24a.788.788 0 0 1-.788-.786v-14l-2.889 2.9a.798.798 0 0 1-1.115.002.783.783 0 0 1-.003-1.109L3.924.358l.338-.333A.79.79 0 0 1 4.817-.2c.213 0 .41.08.556.226l4.231 4.219a.784.784 0 0 1 0 1.108.787.787 0 0 1-.556.227.787.787 0 0 1-.555-.226l-2.88-2.89v13.989a.788.788 0 0 1-.79.786z" style="stroke:none" transform="translate(.4 .4)"/>
        <path d="M14.817 19.041a.582.582 0 0 0 .415-.168l4.23-4.22a.58.58 0 0 0 0-.823.591.591 0 0 0-.829 0l-3.22 3.23V2.588a.59.59 0 0 0-.59-.586.592.592 0 0 0-.587.586v14.484l-3.23-3.242a.597.597 0 0 0-.835 0 .58.58 0 0 0 0 .824l3.895 3.887.336.332a.585.585 0 0 0 .415.168M4.824 17.04a.59.59 0 0 0 .588-.586V1.98l3.221 3.231c.23.226.6.226.83 0a.581.581 0 0 0 0-.824L5.231.167A.583.583 0 0 0 4.817 0c-.15 0-.3.055-.415.167L4.066.5.17 4.387a.581.581 0 0 0 0 .824.598.598 0 0 0 .835 0l3.23-3.243v14.485c0 .32.267.586.588.586m9.993 2.402c-.263 0-.51-.1-.695-.283l-.337-.332-3.896-3.89a.982.982 0 0 1 .702-1.676c.264 0 .511.102.697.287l2.548 2.557V2.588a.988.988 0 0 1 1.976 0v13.505l2.538-2.545a.986.986 0 0 1 .698-.288.984.984 0 0 1 .986.976.981.981 0 0 1-.287.7l-4.232 4.22a.978.978 0 0 1-.698.285zM4.824 17.44a.988.988 0 0 1-.988-.986V2.937L1.289 5.493a.997.997 0 0 1-1.396.005.982.982 0 0 1-.006-1.393L3.784.216l.338-.333A.989.989 0 0 1 4.817-.4c.266 0 .514.101.697.285l4.231 4.218a.983.983 0 0 1-.697 1.677.986.986 0 0 1-.695-.284l-2.54-2.548v13.505a.988.988 0 0 1-.99.986z" style="fill:#333;stroke:none" transform="translate(.4 .4)"/>
    </g>
</svg>
