<svg id="이미지업" xmlns="http://www.w3.org/2000/svg" width="28.123" height="32.392" viewBox="0 0 28.123 32.392">
  <path id="img" d="M22.485,29H2.367A2.3,2.3,0,0,1,0,26.766V2.231A2.3,2.3,0,0,1,2.367,0H13.22a8.249,8.249,0,0,0,6.806,12.911,8.189,8.189,0,0,0,4.826-1.558V26.766A2.3,2.3,0,0,1,22.485,29ZM7.382,18.528,4.067,22.36v2.963h17.6V18.528l-3.625-3.562L10.951,22.36Zm-.469-8.221a2.847,2.847,0,1,0,2.848,2.848A2.85,2.85,0,0,0,6.913,10.307Z" transform="translate(0 3.397)" fill="#888"/>
  <path id="빼기_59" data-name="빼기 59" d="M7.349,14.7A7.349,7.349,0,1,1,14.7,7.349,7.357,7.357,0,0,1,7.349,14.7ZM6.954,5.663v5.986a.652.652,0,0,0,.645.642.645.645,0,0,0,.646-.642V5.671L9.858,7.289a.641.641,0,0,0,.454.185.645.645,0,0,0,.645-.636.644.644,0,0,0-.19-.457L8.051,3.674a.646.646,0,0,0-.908,0l-.219.214-2.5,2.5a.635.635,0,0,0,0,.906.649.649,0,0,0,.457.185.641.641,0,0,0,.456-.187L6.952,5.665Z" transform="translate(13.426)" fill="#888"/>
</svg>
