<svg xmlns="http://www.w3.org/2000/svg" width="15.6" height="15.6" viewBox="0 0 15.6 15.6">
    <path data-name="패스 1434" d="M-401.842-1185a.7.7 0 0 1-.737-.652v-10.087a.7.7 0 0 1 .737-.652h9.105a.7.7 0 0 1 .737.652v10.087a.7.7 0 0 1-.737.652zm0-.652h9.105v-10.087h-9.105zm-1.794-1.956h-2.628a.7.7 0 0 1-.737-.652v-11.087a.7.7 0 0 1 .737-.652h9.105a.7.7 0 0 1 .737.652v1.874h-.737v-1.874h-9.105v11.087h2.628v.652z" transform="translate(407.3 1200.3)" style="stroke:#4a4d9f;stroke-width:.6px;fill:#4a4d9f"/>
    <path data-name="합치기 69" d="M2 5V3H0V2h2V0h1v2h2v1H3v2z" transform="translate(7.5 7.3)" style="fill:#4a4d9f"/>
</svg>
