<svg id="영상" xmlns="http://www.w3.org/2000/svg" width="36.189" height="23.539" viewBox="0 0 36.189 23.539">
  <path id="빼기_60" data-name="빼기 60" d="M20.685,21.234H10.59a1.743,1.743,0,0,1-1.331-1.222V15.493L1.231,19.071A.888.888,0,0,1,.4,19.012a.852.852,0,0,1-.4-.718V2.937a.849.849,0,0,1,.4-.717.879.879,0,0,1,.472-.137.891.891,0,0,1,.36.076L9.259,5.737V1.6A2.676,2.676,0,0,1,10.893,0H30.686c.492,0,1.7,1.135,1.7,1.6V7.826a9.378,9.378,0,0,0-3.975-.872,9.248,9.248,0,0,0-9.32,9.153,8.992,8.992,0,0,0,1.6,5.125Z" transform="translate(0 0.001)" fill="#888"/>
  <path id="빼기_59" data-name="빼기 59" d="M7.327,14.654a7.327,7.327,0,1,1,7.327-7.327A7.335,7.335,0,0,1,7.327,14.654ZM6.934,5.646v5.969a.65.65,0,0,0,.643.64.643.643,0,0,0,.644-.64V5.654L9.829,7.267a.64.64,0,0,0,.453.185.643.643,0,0,0,.643-.634.642.642,0,0,0-.189-.456l-2.709-2.7a.645.645,0,0,0-.905,0L6.9,3.874,4.409,6.364a.633.633,0,0,0,0,.9.647.647,0,0,0,.456.185.639.639,0,0,0,.454-.187l1.61-1.617Z" transform="translate(21.535 8.885)" fill="#888"/>
</svg>
