<svg xmlns="http://www.w3.org/2000/svg" width="25.381" height="21.29" viewBox="0 0 25.381 21.29">
    <path d="m-5174.761-9720.886-7.418-8.729a.5.5 0 0 1 .379-.824h3.815c.037-.564.095-1.2.167-1.927 1.027-6.269 4.7-9.222 10.824-9.635a10.16 10.16 0 0 1 7.085 2.821c1.893 1.821 3.284 4.694 2.937 6.813a6.941 6.941 0 0 0-2.616-4.97 8.341 8.341 0 0 0-5.506-1.587 6.481 6.481 0 0 0-6.616 6.056 23.97 23.97 0 0 0-.088 2.428h4.836a.5.5 0 0 1 .381.824l-7.418 8.729a.5.5 0 0 1-.381.176.5.5 0 0 1-.381-.175z" transform="translate(5182.299 9742)" style="fill:#fff"/>
</svg>
