<svg id="IconDateSelect" xmlns="http://www.w3.org/2000/svg" width="20.002" height="20.521" viewBox="0 0 20.002 20.521">
  <g id="그룹_2396" data-name="그룹 2396" transform="translate(8253.001 10796)">
    <path id="패스_1451" data-name="패스 1451" d="M-205.48-873.48A.522.522,0,0,1-206-874v-13.587c0-.027,0-.054,0-.081v-1.861a2,2,0,0,1,2-2h.275v1.049a2,2,0,0,0,2,2,2,2,0,0,0,2-2v-1.049h7.325v1.174a1.878,1.878,0,0,0,1.875,1.876,1.877,1.877,0,0,0,1.875-1.876v-1.174H-188a2,2,0,0,1,2,2v1.861c0,.013,0,.025,0,.039V-874a.521.521,0,0,1-.52.52Zm.278-.993h18.4V-886.01h-18.4Zm13.7-15.586V-893a1,1,0,0,1,1-1,1,1,0,0,1,1,1v2.941a1,1,0,0,1-1,1A1,1,0,0,1-191.5-890.059Zm-11.2,0V-893a1,1,0,0,1,1-1,1,1,0,0,1,1,1v2.941a1,1,0,0,1-1,1A1,1,0,0,1-202.7-890.059Z" transform="translate(-8047 -9902)" fill="#333"/>
  </g>
</svg>
