<svg xmlns="http://www.w3.org/2000/svg" width="22.31" height="23.404" viewBox="0 0 22.31 23.404">
    <path d="m21.938 26.6-3.017-3.285a9.012 9.012 0 0 1-9.122.013L6.8 26.6a.7.7 0 1 1-1.031-.947l2.877-3.134a9 9 0 1 1 11.431-.019l2.893 3.15a.7.7 0 1 1-1.031.947zM7.349 15.559a7 7 0 1 0 7-7 7.008 7.008 0 0 0-7 7zM16.946 19l-3.3-3.155v-2.662a.7.7 0 0 1 1.4 0v2.059l2.864 2.741A.7.7 0 1 1 16.946 19zm1.168-15.31s4.334-1.045 6.364.984.984 6.364.984 6.364zm-13.44.984c2.026-2.029 6.364-.984 6.364-.984L3.69 11.038S2.645 6.7 4.674 4.674z" transform="translate(-3.421 -3.421)" style="fill:#fff"/>
</svg>
