<svg xmlns="http://www.w3.org/2000/svg" width="16" height="11.732" viewBox="0 0 16 11.732">
    <path d="m-6514.023-11167.623-4.448-4.3a1.507 1.507 0 0 1-.528-1.1 1.273 1.273 0 0 1 .437-.936 1.416 1.416 0 0 1 .982-.4 1.684 1.684 0 0 1 1.1.453l3.282 2.121 8.083-6.881a1.266 1.266 0 0 1 .864-.336 1.274 1.274 0 0 1 .887.354 1.187 1.187 0 0 1 .367.857 1.183 1.183 0 0 1-.354.844l-8.9 9.322a1.266 1.266 0 0 1-.886.355 1.265 1.265 0 0 1-.886-.353z" transform="translate(6519 11179)" style="fill:#ff8964"/>
</svg>
