<svg xmlns="http://www.w3.org/2000/svg" width="17.528" height="16.038" viewBox="0 0 17.528 16.038">
  <path id="예약내용" d="M16.765,16.037,14.2,13.483v-.405l-.138-.143a3.332,3.332,0,1,1,.358-.358l.143.138h.4l2.555,2.561-.762.762h0Zm-7.33-5.651a2.472,2.472,0,1,0,2.472-2.472A2.475,2.475,0,0,0,9.435,10.386ZM2,15.654a2,2,0,0,1-2-2V2A2,2,0,0,1,2,0H12.163a2,2,0,0,1,2,2V6.562a4.474,4.474,0,0,0-5.414.727H3.06v1.5H7.768a4.5,4.5,0,0,0-.292,2.1H3.06v1.495H7.9a4.475,4.475,0,0,0,6.125,2.006,1.991,1.991,0,0,1-1.86,1.266ZM3.06,5.186h8.455V3.692H3.06Z" fill="#333" opacity="0.5"/>
</svg>
